<svg id="svg" version="1.1" xmlns="http://www.w3.org/2000/svg" xmlns:xlink="http://www.w3.org/1999/xlink" width="400" height="400" viewBox="0, 0, 400,400"><g id="svgg"><path id="path0" d="M115.200 93.445 C 108.787 95.572,105.640 97.765,100.589 103.629 C 98.835 105.664,97.103 107.643,96.739 108.025 C 96.376 108.408,95.967 109.075,95.829 109.508 C 95.692 109.940,95.224 110.616,94.790 111.009 C 94.355 111.402,94.000 111.972,94.000 112.275 C 94.000 112.577,93.741 112.924,93.424 113.046 C 93.108 113.167,92.736 113.779,92.599 114.406 C 92.461 115.032,92.102 115.750,91.800 116.000 C 91.498 116.250,91.138 116.970,91.000 117.600 C 90.862 118.230,90.502 118.950,90.200 119.200 C 89.898 119.450,89.532 120.228,89.386 120.928 C 89.241 121.627,88.896 122.560,88.621 123.000 C 88.346 123.440,87.988 124.514,87.826 125.386 C 87.664 126.259,87.302 127.429,87.022 127.986 C 86.741 128.544,86.403 130.087,86.271 131.415 C 86.138 132.744,85.740 134.525,85.385 135.374 C 84.435 137.648,84.419 155.915,85.365 158.179 C 85.718 159.022,86.120 160.722,86.259 161.956 C 86.397 163.190,86.735 164.650,87.009 165.200 C 87.282 165.750,87.633 167.136,87.788 168.280 C 87.943 169.424,88.310 170.559,88.603 170.803 C 88.897 171.047,89.261 172.001,89.412 172.923 C 89.563 173.845,89.913 174.870,90.190 175.200 C 90.466 175.530,90.817 176.340,90.970 177.000 C 91.249 178.207,92.536 181.284,93.229 182.400 C 93.434 182.730,93.792 183.450,94.025 184.000 C 94.667 185.517,96.356 188.807,97.415 190.600 C 97.934 191.480,98.551 192.623,98.785 193.140 C 99.019 193.658,99.796 195.008,100.510 196.140 C 102.495 199.287,102.733 199.667,103.908 201.567 C 104.508 202.539,105.270 203.623,105.600 203.976 C 105.930 204.329,107.099 205.964,108.197 207.609 C 109.295 209.254,110.385 210.780,110.618 211.000 C 110.851 211.220,111.572 212.210,112.221 213.200 C 112.869 214.190,113.537 215.180,113.705 215.400 C 113.872 215.620,114.547 216.500,115.205 217.355 C 115.862 218.210,116.400 219.020,116.400 219.155 C 116.400 219.290,116.985 220.080,117.700 220.910 C 118.415 221.741,119.314 222.821,119.698 223.310 C 120.082 223.800,121.584 225.723,123.037 227.584 C 124.490 229.446,125.904 231.156,126.180 231.384 C 126.456 231.613,127.565 232.880,128.645 234.200 C 133.926 240.659,146.477 253.645,153.581 260.000 C 154.933 261.210,156.623 262.740,157.336 263.400 C 158.049 264.060,159.303 265.107,160.124 265.726 C 160.944 266.346,162.107 267.288,162.708 267.820 C 164.680 269.567,164.942 269.776,168.323 272.300 C 170.165 273.675,171.836 274.800,172.036 274.800 C 172.236 274.800,172.400 274.962,172.400 275.160 C 172.400 275.494,174.039 276.661,176.274 277.922 C 176.783 278.209,177.200 278.614,177.200 278.822 C 177.200 279.030,177.405 279.200,177.655 279.200 C 177.906 279.200,179.661 280.233,181.555 281.496 C 184.852 283.694,185.927 284.346,188.600 285.770 C 189.260 286.122,191.060 287.118,192.600 287.985 C 196.690 290.287,203.609 293.600,204.326 293.600 C 204.533 293.600,204.910 293.850,205.163 294.156 C 205.417 294.461,206.418 294.911,207.388 295.155 C 208.359 295.400,209.264 295.780,209.400 296.000 C 209.536 296.220,209.959 296.400,210.339 296.400 C 210.720 296.400,211.716 296.750,212.554 297.177 C 213.392 297.604,214.646 298.074,215.339 298.221 C 216.033 298.369,216.870 298.715,217.200 298.991 C 217.530 299.267,218.340 299.613,219.000 299.760 C 219.660 299.907,220.740 300.272,221.400 300.571 C 223.608 301.571,227.009 302.800,227.608 302.814 C 227.933 302.821,228.920 303.175,229.800 303.600 C 230.680 304.025,231.722 304.379,232.116 304.386 C 232.510 304.394,233.538 304.760,234.400 305.200 C 235.262 305.640,236.290 306.000,236.684 306.000 C 237.078 306.000,238.480 306.344,239.800 306.765 C 245.242 308.501,246.379 308.800,248.890 309.156 C 250.335 309.361,251.942 309.769,252.459 310.064 C 253.781 310.817,276.781 310.846,277.684 310.097 C 278.017 309.820,279.333 309.400,280.608 309.165 C 281.882 308.929,283.302 308.501,283.763 308.213 C 284.223 307.925,285.275 307.571,286.100 307.427 C 286.925 307.282,287.600 307.006,287.600 306.814 C 287.600 306.621,288.185 306.336,288.900 306.180 C 289.615 306.024,290.629 305.559,291.154 305.148 C 291.679 304.737,292.402 304.400,292.763 304.400 C 293.123 304.400,294.493 303.685,295.809 302.811 C 297.124 301.938,298.352 301.218,298.537 301.211 C 298.722 301.205,299.352 300.837,299.937 300.393 C 300.522 299.950,301.360 299.317,301.800 298.987 C 304.986 296.600,307.536 294.414,308.948 292.861 C 309.857 291.862,310.915 290.720,311.300 290.322 C 311.685 289.925,312.000 289.454,312.000 289.275 C 312.000 289.097,312.342 288.583,312.761 288.134 C 313.990 286.815,316.650 280.766,316.937 278.640 C 317.082 277.563,317.386 276.458,317.613 276.185 C 317.839 275.912,318.278 274.184,318.588 272.344 C 318.898 270.505,319.342 268.371,319.576 267.603 C 320.313 265.173,320.117 256.383,319.297 255.153 C 318.493 253.946,316.647 252.384,315.200 251.687 C 314.650 251.422,313.930 251.055,313.600 250.871 C 311.521 249.712,309.577 248.800,309.184 248.800 C 308.932 248.800,308.269 248.440,307.709 248.000 C 307.150 247.560,306.378 247.200,305.995 247.200 C 305.612 247.200,305.098 246.959,304.854 246.665 C 304.609 246.370,303.687 245.913,302.805 245.649 C 301.922 245.384,301.200 245.015,301.200 244.827 C 301.200 244.640,300.705 244.363,300.100 244.212 C 299.495 244.061,298.730 243.703,298.400 243.416 C 298.070 243.129,297.350 242.762,296.800 242.600 C 296.250 242.438,295.530 242.081,295.200 241.806 C 294.870 241.532,294.118 241.193,293.528 241.053 C 292.938 240.913,292.186 240.529,291.857 240.199 C 291.527 239.870,291.044 239.600,290.783 239.600 C 290.522 239.600,289.654 239.250,288.854 238.822 C 288.055 238.394,286.320 237.573,285.000 236.998 C 283.680 236.422,282.330 235.781,282.000 235.573 C 281.670 235.365,281.130 235.094,280.800 234.972 C 280.470 234.849,279.435 234.400,278.500 233.974 C 267.467 228.949,266.600 228.628,264.042 228.613 C 259.388 228.586,256.344 231.240,249.600 241.204 C 248.861 242.296,246.983 244.797,246.314 245.580 C 246.042 245.899,244.693 247.609,243.316 249.380 C 241.036 252.314,239.199 254.349,237.600 255.715 C 234.461 258.394,227.587 258.532,222.772 256.012 C 222.426 255.831,220.939 255.201,219.467 254.612 C 217.995 254.023,215.229 252.745,213.321 251.771 C 211.412 250.797,209.614 250.000,209.325 250.000 C 209.036 250.000,208.800 249.840,208.800 249.643 C 208.800 249.447,208.305 249.163,207.700 249.012 C 207.095 248.861,206.330 248.502,206.000 248.214 C 205.670 247.926,204.326 247.123,203.014 246.430 C 201.702 245.736,200.337 244.905,199.982 244.584 C 199.627 244.263,199.121 244.000,198.856 244.000 C 198.591 244.000,198.271 243.730,198.145 243.400 C 198.018 243.070,197.734 242.800,197.513 242.800 C 196.926 242.800,193.200 240.323,193.200 239.933 C 193.200 239.750,193.003 239.600,192.763 239.600 C 192.523 239.600,191.848 239.237,191.263 238.792 C 187.510 235.942,181.618 231.267,180.470 230.228 C 172.016 222.582,169.610 220.151,163.000 212.578 C 162.560 212.074,161.840 211.164,161.400 210.556 C 160.960 209.948,160.195 209.008,159.700 208.467 C 159.205 207.926,158.800 207.370,158.800 207.231 C 158.800 207.092,158.258 206.385,157.595 205.659 C 155.450 203.311,145.437 188.578,144.957 187.063 C 144.812 186.609,144.448 185.991,144.147 185.690 C 143.789 185.332,143.600 184.182,143.600 182.367 C 143.600 178.675,145.536 175.832,154.600 166.217 C 157.527 163.112,158.607 161.765,160.382 159.000 C 160.806 158.340,161.308 157.620,161.497 157.400 C 162.921 155.745,163.850 150.845,163.038 149.273 C 162.687 148.595,162.400 147.647,162.400 147.167 C 162.400 146.687,162.059 145.733,161.643 145.047 C 161.227 144.361,160.765 143.227,160.617 142.528 C 160.470 141.828,160.090 141.041,159.774 140.779 C 159.458 140.517,159.200 140.006,159.200 139.645 C 159.200 139.284,158.840 138.316,158.400 137.496 C 157.960 136.675,157.600 135.723,157.600 135.381 C 157.600 135.038,157.240 134.048,156.800 133.179 C 156.360 132.311,155.640 130.889,155.200 130.021 C 154.760 129.152,154.400 128.205,154.400 127.915 C 154.400 127.625,154.040 126.716,153.600 125.896 C 153.160 125.075,152.800 124.064,152.800 123.650 C 152.800 123.237,152.550 122.690,152.244 122.437 C 151.939 122.183,151.489 121.182,151.245 120.212 C 151.000 119.241,150.620 118.336,150.400 118.200 C 150.180 118.064,149.994 117.648,149.987 117.276 C 149.981 116.904,149.532 115.700,148.991 114.600 C 148.450 113.500,148.006 112.307,148.004 111.949 C 148.002 111.591,147.742 111.083,147.426 110.821 C 147.110 110.559,146.726 109.775,146.573 109.078 C 146.420 108.382,146.066 107.449,145.787 107.006 C 145.507 106.563,145.159 105.627,145.014 104.928 C 144.868 104.228,144.490 103.441,144.174 103.179 C 143.858 102.917,143.600 102.388,143.600 102.005 C 143.600 101.622,143.251 100.864,142.825 100.322 C 142.398 99.780,141.928 98.853,141.780 98.261 C 141.423 96.841,137.106 92.961,135.533 92.647 C 131.826 91.905,118.234 92.439,115.200 93.445 " stroke="none" fill="#fafbfa" fill-rule="evenodd"></path><path id="path1" d="M174.400 0.400 C 174.400 0.644,172.533 0.800,169.600 0.800 C 165.333 0.800,164.711 0.889,164.000 1.600 C 163.335 2.265,162.667 2.400,160.033 2.400 C 156.520 2.400,155.600 2.616,155.600 3.443 C 155.600 3.870,154.892 4.000,152.563 4.000 C 149.862 4.000,149.502 4.089,149.316 4.800 C 149.132 5.504,148.770 5.600,146.316 5.600 C 143.862 5.600,143.500 5.696,143.316 6.400 C 143.137 7.086,142.770 7.200,140.753 7.200 C 139.008 7.200,138.400 7.344,138.400 7.757 C 138.400 8.496,137.514 8.800,135.367 8.800 C 134.136 8.800,133.600 8.966,133.600 9.349 C 133.600 9.718,132.925 9.963,131.546 10.096 C 130.217 10.223,129.362 10.524,129.126 10.946 C 128.898 11.354,128.241 11.600,127.380 11.600 C 126.267 11.600,126.000 11.755,126.000 12.400 C 126.000 13.105,125.733 13.200,123.763 13.200 C 121.862 13.200,121.494 13.320,121.316 14.000 C 121.152 14.627,120.770 14.800,119.553 14.800 C 118.267 14.800,118.000 14.937,118.000 15.600 C 118.000 16.267,117.733 16.400,116.400 16.400 C 115.067 16.400,114.800 16.533,114.800 17.200 C 114.800 17.863,114.533 18.000,113.247 18.000 C 112.030 18.000,111.648 18.173,111.484 18.800 C 111.332 19.383,110.938 19.600,110.037 19.600 C 109.067 19.600,108.800 19.772,108.800 20.400 C 108.800 21.067,108.533 21.200,107.200 21.200 C 105.867 21.200,105.600 21.333,105.600 22.000 C 105.600 22.667,105.333 22.800,104.000 22.800 C 102.667 22.800,102.400 22.933,102.400 23.600 C 102.400 24.267,102.133 24.400,100.800 24.400 C 99.667 24.400,99.200 24.570,99.200 24.982 C 99.200 25.330,98.638 25.669,97.800 25.826 C 96.998 25.977,96.400 26.326,96.400 26.645 C 96.400 26.950,96.023 27.200,95.563 27.200 C 95.062 27.200,94.641 27.521,94.516 28.000 C 94.366 28.574,93.970 28.800,93.116 28.800 C 92.262 28.800,91.866 29.026,91.716 29.600 C 91.601 30.040,91.211 30.400,90.850 30.400 C 90.488 30.400,89.968 30.760,89.693 31.200 C 89.374 31.710,88.760 32.000,87.997 32.000 C 87.067 32.000,86.800 32.178,86.800 32.800 C 86.800 33.333,86.533 33.600,86.000 33.600 C 85.467 33.600,85.200 33.867,85.200 34.400 C 85.200 35.052,84.933 35.200,83.763 35.200 C 82.662 35.200,82.276 35.387,82.116 36.000 C 82.000 36.443,81.570 36.800,81.153 36.800 C 80.667 36.800,80.400 37.083,80.400 37.600 C 80.400 38.122,80.133 38.400,79.633 38.400 C 78.441 38.400,77.600 38.831,77.600 39.443 C 77.600 39.749,77.240 40.000,76.800 40.000 C 76.267 40.000,76.000 40.267,76.000 40.800 C 76.000 41.333,75.733 41.600,75.200 41.600 C 74.756 41.600,74.400 41.867,74.400 42.200 C 74.400 42.530,74.113 42.800,73.763 42.800 C 73.412 42.800,73.035 43.143,72.926 43.562 C 72.798 44.051,72.229 44.418,71.342 44.584 C 70.581 44.727,69.861 45.097,69.742 45.407 C 69.623 45.716,69.183 46.079,68.763 46.212 C 68.343 46.345,68.000 46.691,68.000 46.980 C 68.000 47.270,67.640 47.601,67.200 47.716 C 66.760 47.831,66.400 48.212,66.400 48.563 C 66.400 48.933,66.065 49.200,65.600 49.200 C 65.067 49.200,64.800 49.467,64.800 50.000 C 64.800 50.533,64.533 50.800,64.000 50.800 C 63.467 50.800,63.200 51.067,63.200 51.600 C 63.200 52.133,62.933 52.400,62.400 52.400 C 61.883 52.400,61.600 52.667,61.600 53.153 C 61.600 53.570,61.243 54.000,60.800 54.116 C 60.360 54.231,60.000 54.612,60.000 54.963 C 60.000 55.313,59.730 55.600,59.400 55.600 C 59.067 55.600,58.800 55.956,58.800 56.400 C 58.800 56.933,58.533 57.200,58.000 57.200 C 57.467 57.200,57.200 57.467,57.200 58.000 C 57.200 58.533,56.933 58.800,56.400 58.800 C 55.960 58.800,55.600 59.049,55.600 59.353 C 55.600 59.658,55.240 60.001,54.800 60.116 C 54.360 60.231,54.000 60.612,54.000 60.963 C 54.000 61.333,53.665 61.600,53.200 61.600 C 52.667 61.600,52.400 61.867,52.400 62.400 C 52.400 62.933,52.133 63.200,51.600 63.200 C 51.067 63.200,50.800 63.467,50.800 64.000 C 50.800 64.533,50.533 64.800,50.000 64.800 C 49.483 64.800,49.200 65.067,49.200 65.553 C 49.200 65.970,48.843 66.400,48.400 66.516 C 47.960 66.631,47.600 67.012,47.600 67.363 C 47.600 67.713,47.342 68.000,47.027 68.000 C 46.712 68.000,46.345 68.343,46.212 68.763 C 46.079 69.183,45.716 69.623,45.407 69.742 C 45.097 69.861,44.727 70.581,44.584 71.342 C 44.418 72.229,44.051 72.798,43.562 72.926 C 43.143 73.035,42.800 73.412,42.800 73.763 C 42.800 74.113,42.530 74.400,42.200 74.400 C 41.867 74.400,41.600 74.756,41.600 75.200 C 41.600 75.733,41.333 76.000,40.800 76.000 C 40.283 76.000,40.000 76.267,40.000 76.753 C 40.000 77.170,39.643 77.600,39.200 77.716 C 38.617 77.868,38.400 78.262,38.400 79.163 C 38.400 80.133,38.228 80.400,37.600 80.400 C 37.083 80.400,36.800 80.667,36.800 81.153 C 36.800 81.570,36.443 82.000,36.000 82.116 C 35.387 82.276,35.200 82.662,35.200 83.763 C 35.200 84.933,35.052 85.200,34.400 85.200 C 33.867 85.200,33.600 85.467,33.600 86.000 C 33.600 86.533,33.333 86.800,32.800 86.800 C 32.178 86.800,32.000 87.067,32.000 87.997 C 32.000 88.760,31.710 89.374,31.200 89.693 C 30.760 89.968,30.400 90.488,30.400 90.850 C 30.400 91.211,30.040 91.601,29.600 91.716 C 29.026 91.866,28.800 92.262,28.800 93.116 C 28.800 93.970,28.574 94.366,28.000 94.516 C 27.521 94.641,27.200 95.062,27.200 95.563 C 27.200 96.023,26.950 96.400,26.645 96.400 C 26.326 96.400,25.977 96.998,25.826 97.800 C 25.669 98.638,25.330 99.200,24.982 99.200 C 24.570 99.200,24.400 99.667,24.400 100.800 C 24.400 102.133,24.267 102.400,23.600 102.400 C 22.933 102.400,22.800 102.667,22.800 104.000 C 22.800 105.333,22.667 105.600,22.000 105.600 C 21.333 105.600,21.200 105.867,21.200 107.200 C 21.200 108.533,21.067 108.800,20.400 108.800 C 19.772 108.800,19.600 109.067,19.600 110.037 C 19.600 110.938,19.383 111.332,18.800 111.484 C 18.173 111.648,18.000 112.030,18.000 113.247 C 18.000 114.533,17.863 114.800,17.200 114.800 C 16.533 114.800,16.400 115.067,16.400 116.400 C 16.400 117.733,16.267 118.000,15.600 118.000 C 14.937 118.000,14.800 118.267,14.800 119.553 C 14.800 120.770,14.627 121.152,14.000 121.316 C 13.320 121.494,13.200 121.862,13.200 123.763 C 13.200 125.733,13.105 126.000,12.400 126.000 C 11.755 126.000,11.600 126.267,11.600 127.380 C 11.600 128.241,11.354 128.898,10.946 129.126 C 10.524 129.362,10.223 130.217,10.096 131.546 C 9.963 132.925,9.718 133.600,9.349 133.600 C 8.966 133.600,8.800 134.136,8.800 135.367 C 8.800 137.514,8.496 138.400,7.757 138.400 C 7.345 138.400,7.200 139.001,7.200 140.704 C 7.200 142.574,7.050 143.102,6.400 143.507 C 5.736 143.922,5.600 144.440,5.600 146.557 C 5.600 148.770,5.494 149.134,4.800 149.316 C 4.091 149.501,4.000 149.862,4.000 152.466 C 4.000 154.974,3.882 155.481,3.200 155.907 C 2.502 156.343,2.400 156.840,2.400 159.803 C 2.400 162.667,2.274 163.326,1.600 164.000 C 0.889 164.711,0.800 165.333,0.800 169.600 C 0.800 172.533,0.644 174.400,0.400 174.400 C 0.138 174.400,0.000 183.000,0.000 199.400 C 0.000 215.800,0.138 224.400,0.400 224.400 C 0.647 224.400,0.800 226.451,0.800 229.753 C 0.800 234.770,0.850 235.120,1.600 235.316 C 2.326 235.506,2.400 235.862,2.400 239.163 C 2.400 242.533,2.459 242.800,3.200 242.800 C 3.944 242.800,4.000 243.067,4.000 246.637 C 4.000 250.138,4.070 250.493,4.800 250.684 C 5.477 250.861,5.600 251.230,5.600 253.084 C 5.600 254.938,5.723 255.307,6.400 255.484 C 7.109 255.669,7.200 256.030,7.200 258.647 C 7.200 260.904,7.331 261.600,7.757 261.600 C 8.496 261.600,8.800 262.486,8.800 264.633 C 8.800 265.937,8.957 266.400,9.400 266.400 C 9.814 266.400,10.000 266.816,10.000 267.746 C 10.000 268.486,10.360 269.550,10.800 270.109 C 11.256 270.689,11.600 271.732,11.600 272.536 C 11.600 273.595,11.799 274.009,12.400 274.200 C 13.060 274.410,13.200 274.805,13.200 276.464 C 13.200 278.138,13.334 278.510,14.000 278.684 C 14.606 278.843,14.800 279.230,14.800 280.284 C 14.800 281.338,14.994 281.725,15.600 281.884 C 16.206 282.043,16.400 282.430,16.400 283.484 C 16.400 284.538,16.594 284.925,17.200 285.084 C 17.806 285.243,18.000 285.630,18.000 286.684 C 18.000 287.738,18.194 288.125,18.800 288.284 C 19.399 288.441,19.600 288.830,19.600 289.833 C 19.600 290.762,19.845 291.303,20.400 291.600 C 20.924 291.880,21.200 292.438,21.200 293.214 C 21.200 294.133,21.380 294.400,22.000 294.400 C 22.667 294.400,22.800 294.667,22.800 296.000 C 22.800 297.333,22.933 297.600,23.600 297.600 C 24.237 297.600,24.400 297.867,24.400 298.911 C 24.400 299.727,24.702 300.481,25.200 300.907 C 25.640 301.284,26.000 301.960,26.000 302.409 C 26.000 302.858,26.270 303.329,26.600 303.455 C 26.930 303.582,27.200 304.043,27.200 304.480 C 27.200 304.938,27.539 305.363,28.000 305.484 C 28.574 305.634,28.800 306.030,28.800 306.884 C 28.800 307.738,29.026 308.134,29.600 308.284 C 30.043 308.400,30.400 308.830,30.400 309.247 C 30.400 309.733,30.683 310.000,31.200 310.000 C 31.852 310.000,32.000 310.267,32.000 311.437 C 32.000 312.538,32.187 312.924,32.800 313.084 C 33.243 313.200,33.600 313.630,33.600 314.047 C 33.600 314.526,33.883 314.800,34.376 314.800 C 35.269 314.800,35.488 316.153,35.266 320.300 C 35.151 322.449,35.024 322.800,34.366 322.800 C 33.705 322.800,33.600 323.099,33.600 324.973 C 33.600 326.795,33.471 327.187,32.800 327.400 C 32.132 327.612,32.000 328.005,32.000 329.780 C 32.000 331.570,31.873 331.940,31.200 332.116 C 30.523 332.293,30.400 332.662,30.400 334.516 C 30.400 336.370,30.277 336.739,29.600 336.916 C 28.923 337.093,28.800 337.462,28.800 339.316 C 28.800 341.170,28.677 341.539,28.000 341.716 C 27.332 341.891,27.200 342.262,27.200 343.963 C 27.200 345.476,27.051 346.000,26.620 346.000 C 26.208 346.000,25.961 346.695,25.768 348.400 C 25.583 350.034,25.322 350.800,24.948 350.800 C 24.545 350.800,24.400 351.434,24.400 353.200 C 24.400 355.333,24.311 355.600,23.600 355.600 C 22.898 355.600,22.800 355.867,22.800 357.773 C 22.800 359.595,22.671 359.987,22.000 360.200 C 21.329 360.413,21.200 360.805,21.200 362.627 C 21.200 364.533,21.102 364.800,20.400 364.800 C 19.689 364.800,19.600 365.067,19.600 367.200 C 19.600 369.333,19.511 369.600,18.800 369.600 C 18.089 369.600,18.000 369.867,18.000 372.000 C 18.000 374.133,17.911 374.400,17.200 374.400 C 16.499 374.400,16.400 374.667,16.400 376.553 C 16.400 378.370,16.275 378.739,15.600 378.916 C 14.920 379.094,14.800 379.462,14.800 381.363 C 14.800 383.333,14.705 383.600,14.000 383.600 C 13.289 383.600,13.200 383.867,13.200 386.000 C 13.200 388.133,13.111 388.400,12.400 388.400 C 11.697 388.400,11.600 388.667,11.600 390.600 L 11.600 392.800 13.971 392.800 C 15.430 392.800,16.551 392.592,16.884 392.259 C 17.181 391.962,18.394 391.625,19.579 391.512 C 20.917 391.383,21.915 391.057,22.211 390.652 C 22.474 390.294,23.141 390.000,23.694 390.000 C 25.548 390.000,27.200 389.505,27.200 388.950 C 27.200 388.582,27.697 388.398,28.700 388.395 C 30.789 388.387,32.000 388.005,32.000 387.353 C 32.000 386.948,32.599 386.800,34.237 386.800 C 36.138 386.800,36.506 386.680,36.684 386.000 C 36.860 385.327,37.230 385.200,39.020 385.200 C 40.795 385.200,41.188 385.068,41.400 384.400 C 41.613 383.729,42.005 383.600,43.827 383.600 C 45.733 383.600,46.000 383.502,46.000 382.800 C 46.000 382.089,46.267 382.000,48.400 382.000 C 50.533 382.000,50.800 381.911,50.800 381.200 C 50.800 380.489,51.067 380.400,53.197 380.400 C 55.160 380.400,55.684 380.255,56.093 379.600 C 56.477 378.985,57.026 378.800,58.464 378.800 C 60.711 378.800,61.600 378.504,61.600 377.757 C 61.600 377.347,62.192 377.200,63.837 377.200 C 65.738 377.200,66.106 377.080,66.284 376.400 C 66.460 375.728,66.830 375.600,68.604 375.600 C 70.111 375.600,70.780 375.428,70.945 375.000 C 71.096 374.607,71.719 374.400,72.755 374.400 C 74.721 374.400,75.600 374.078,75.600 373.357 C 75.600 372.965,76.123 372.800,77.367 372.800 C 79.514 372.800,80.400 372.496,80.400 371.757 C 80.400 371.347,80.992 371.200,82.637 371.200 C 84.506 371.200,84.908 371.074,85.075 370.434 C 85.237 369.814,85.710 369.642,87.538 369.534 C 90.670 369.349,91.486 369.522,91.722 370.422 C 91.866 370.973,92.273 371.200,93.116 371.200 C 93.970 371.200,94.366 371.426,94.516 372.000 C 94.637 372.461,95.062 372.800,95.520 372.800 C 95.957 372.800,96.412 373.053,96.530 373.362 C 96.649 373.672,97.298 374.046,97.973 374.194 C 98.648 374.342,99.200 374.719,99.200 375.032 C 99.200 375.428,99.684 375.600,100.800 375.600 C 102.133 375.600,102.400 375.733,102.400 376.400 C 102.400 377.067,102.667 377.200,104.000 377.200 C 105.333 377.200,105.600 377.333,105.600 378.000 C 105.600 378.667,105.867 378.800,107.200 378.800 C 108.533 378.800,108.800 378.933,108.800 379.600 C 108.800 380.248,109.067 380.400,110.200 380.400 C 111.333 380.400,111.600 380.552,111.600 381.200 C 111.600 381.867,111.867 382.000,113.200 382.000 C 114.533 382.000,114.800 382.133,114.800 382.800 C 114.800 383.463,115.067 383.600,116.353 383.600 C 117.570 383.600,117.952 383.773,118.116 384.400 C 118.276 385.013,118.662 385.200,119.763 385.200 C 120.720 385.200,121.200 385.385,121.200 385.753 C 121.200 386.405,122.411 386.787,124.500 386.795 C 125.732 386.799,126.000 386.943,126.000 387.600 C 126.000 388.267,126.267 388.400,127.600 388.400 C 128.691 388.400,129.200 388.575,129.200 388.950 C 129.200 389.480,130.836 390.000,132.506 390.000 C 132.949 390.000,133.526 390.294,133.789 390.652 C 134.080 391.051,135.070 391.382,136.333 391.503 C 137.722 391.637,138.400 391.882,138.400 392.251 C 138.400 392.658,139.048 392.800,140.904 392.800 C 142.974 392.800,143.494 392.938,143.907 393.600 C 144.315 394.254,144.840 394.400,146.776 394.400 C 148.795 394.400,149.184 394.519,149.400 395.200 C 149.623 395.902,150.005 396.000,152.531 396.000 C 154.974 396.000,155.483 396.120,155.907 396.800 C 156.355 397.516,156.840 397.600,160.557 397.600 C 164.370 397.600,164.724 397.665,164.916 398.400 C 165.111 399.147,165.462 399.200,170.163 399.200 C 173.254 399.200,175.200 399.355,175.200 399.600 C 175.200 399.862,183.867 400.000,200.400 400.000 C 216.933 400.000,225.600 399.862,225.600 399.600 C 225.600 399.356,227.467 399.200,230.400 399.200 C 234.667 399.200,235.289 399.111,236.000 398.400 C 236.665 397.735,237.333 397.600,239.967 397.600 C 243.480 397.600,244.400 397.384,244.400 396.557 C 244.400 396.130,245.108 396.000,247.437 396.000 C 250.138 396.000,250.498 395.911,250.684 395.200 C 250.866 394.506,251.230 394.400,253.443 394.400 C 255.560 394.400,256.078 394.264,256.493 393.600 C 256.898 392.950,257.426 392.800,259.296 392.800 C 261.077 392.800,261.600 392.664,261.600 392.200 C 261.600 391.774,262.036 391.598,263.100 391.595 C 265.138 391.587,266.400 391.208,266.400 390.604 C 266.400 390.292,267.177 390.027,268.454 389.904 C 269.783 389.777,270.638 389.476,270.874 389.054 C 271.105 388.641,271.762 388.400,272.657 388.400 C 273.738 388.400,274.125 388.210,274.284 387.600 C 274.458 386.935,274.830 386.800,276.484 386.800 C 278.138 386.800,278.510 386.665,278.684 386.000 C 278.848 385.373,279.230 385.200,280.447 385.200 C 281.733 385.200,282.000 385.063,282.000 384.400 C 282.000 383.733,282.267 383.600,283.600 383.600 C 284.933 383.600,285.200 383.467,285.200 382.800 C 285.200 382.137,285.467 382.000,286.753 382.000 C 287.970 382.000,288.352 381.827,288.516 381.200 C 288.670 380.611,289.062 380.400,290.000 380.400 C 290.938 380.400,291.330 380.189,291.484 379.600 C 291.641 378.999,292.030 378.800,293.047 378.800 C 294.133 378.800,294.400 378.642,294.400 378.000 C 294.400 377.333,294.667 377.200,296.000 377.200 C 297.333 377.200,297.600 377.067,297.600 376.400 C 297.600 375.733,297.867 375.600,299.200 375.600 C 300.299 375.600,300.800 375.426,300.800 375.045 C 300.800 374.726,301.398 374.377,302.200 374.226 C 303.038 374.069,303.600 373.730,303.600 373.382 C 303.600 373.058,303.971 372.800,304.437 372.800 C 304.938 372.800,305.359 372.479,305.484 372.000 C 305.634 371.426,306.030 371.200,306.884 371.200 C 307.738 371.200,308.134 370.974,308.284 370.400 C 308.399 369.960,308.789 369.600,309.150 369.600 C 309.512 369.600,310.032 369.240,310.307 368.800 C 310.626 368.290,311.240 368.000,312.003 368.000 C 312.933 368.000,313.200 367.822,313.200 367.200 C 313.200 366.667,313.467 366.400,314.000 366.400 C 314.533 366.400,314.800 366.133,314.800 365.600 C 314.800 364.948,315.067 364.800,316.237 364.800 C 317.338 364.800,317.724 364.613,317.884 364.000 C 318.000 363.557,318.430 363.200,318.847 363.200 C 319.333 363.200,319.600 362.917,319.600 362.400 C 319.600 361.814,319.867 361.600,320.597 361.600 C 321.160 361.600,321.810 361.252,322.093 360.800 C 322.368 360.360,322.897 360.000,323.269 360.000 C 323.642 360.000,324.060 359.640,324.200 359.200 C 324.340 358.760,324.712 358.400,325.027 358.400 C 325.342 358.400,325.600 358.130,325.600 357.800 C 325.600 357.467,325.956 357.200,326.400 357.200 C 326.918 357.200,327.200 356.933,327.200 356.445 C 327.200 355.896,327.589 355.616,328.621 355.422 C 329.403 355.276,330.139 354.903,330.258 354.593 C 330.377 354.284,330.817 353.921,331.237 353.788 C 331.657 353.655,332.000 353.309,332.000 353.020 C 332.000 352.730,332.360 352.399,332.800 352.284 C 333.240 352.169,333.600 351.788,333.600 351.437 C 333.600 351.067,333.935 350.800,334.400 350.800 C 334.933 350.800,335.200 350.533,335.200 350.000 C 335.200 349.467,335.467 349.200,336.000 349.200 C 336.533 349.200,336.800 348.933,336.800 348.400 C 336.800 347.867,337.067 347.600,337.600 347.600 C 338.133 347.600,338.400 347.333,338.400 346.800 C 338.400 346.267,338.667 346.000,339.200 346.000 C 339.733 346.000,340.000 345.733,340.000 345.200 C 340.000 344.667,340.267 344.400,340.800 344.400 C 341.333 344.400,341.600 344.133,341.600 343.600 C 341.600 343.156,341.867 342.800,342.200 342.800 C 342.530 342.800,342.800 342.530,342.800 342.200 C 342.800 341.867,343.156 341.600,343.600 341.600 C 344.133 341.600,344.400 341.333,344.400 340.800 C 344.400 340.267,344.667 340.000,345.200 340.000 C 345.733 340.000,346.000 339.733,346.000 339.200 C 346.000 338.667,346.267 338.400,346.800 338.400 C 347.333 338.400,347.600 338.133,347.600 337.600 C 347.600 337.067,347.867 336.800,348.400 336.800 C 348.933 336.800,349.200 336.533,349.200 336.000 C 349.200 335.467,349.467 335.200,350.000 335.200 C 350.517 335.200,350.800 334.933,350.800 334.447 C 350.800 334.030,351.157 333.600,351.600 333.484 C 352.040 333.369,352.400 332.988,352.400 332.637 C 352.400 332.287,352.658 332.000,352.973 332.000 C 353.288 332.000,353.655 331.657,353.788 331.237 C 353.921 330.817,354.284 330.377,354.593 330.258 C 354.903 330.139,355.276 329.403,355.422 328.621 C 355.616 327.589,355.896 327.200,356.445 327.200 C 356.933 327.200,357.200 326.918,357.200 326.400 C 357.200 325.956,357.467 325.600,357.800 325.600 C 358.130 325.600,358.400 325.342,358.400 325.027 C 358.400 324.712,358.760 324.340,359.200 324.200 C 359.640 324.060,360.000 323.598,360.000 323.173 C 360.000 322.748,360.251 322.400,360.557 322.400 C 361.169 322.400,361.600 321.559,361.600 320.367 C 361.600 319.867,361.878 319.600,362.400 319.600 C 362.917 319.600,363.200 319.333,363.200 318.847 C 363.200 318.430,363.557 318.000,364.000 317.884 C 364.613 317.724,364.800 317.338,364.800 316.237 C 364.800 315.067,364.948 314.800,365.600 314.800 C 366.133 314.800,366.400 314.533,366.400 314.000 C 366.400 313.467,366.667 313.200,367.200 313.200 C 367.822 313.200,368.000 312.933,368.000 312.003 C 368.000 311.240,368.290 310.626,368.800 310.307 C 369.240 310.032,369.600 309.512,369.600 309.150 C 369.600 308.789,369.960 308.399,370.400 308.284 C 370.983 308.132,371.200 307.738,371.200 306.837 C 371.200 305.995,371.395 305.600,371.810 305.600 C 372.145 305.600,372.591 305.150,372.800 304.600 C 373.009 304.050,373.356 303.600,373.572 303.600 C 373.787 303.600,374.082 302.970,374.226 302.200 C 374.377 301.398,374.726 300.800,375.045 300.800 C 375.426 300.800,375.600 300.299,375.600 299.200 C 375.600 297.867,375.733 297.600,376.400 297.600 C 377.067 297.600,377.200 297.333,377.200 296.000 C 377.200 294.667,377.333 294.400,378.000 294.400 C 378.642 294.400,378.800 294.133,378.800 293.047 C 378.800 292.030,378.999 291.641,379.600 291.484 C 380.189 291.330,380.400 290.938,380.400 290.000 C 380.400 289.062,380.611 288.670,381.200 288.516 C 381.827 288.352,382.000 287.970,382.000 286.753 C 382.000 285.467,382.137 285.200,382.800 285.200 C 383.467 285.200,383.600 284.933,383.600 283.600 C 383.600 282.267,383.733 282.000,384.400 282.000 C 385.063 282.000,385.200 281.733,385.200 280.447 C 385.200 279.230,385.373 278.848,386.000 278.684 C 386.665 278.510,386.800 278.138,386.800 276.484 C 386.800 274.830,386.935 274.458,387.600 274.284 C 388.210 274.125,388.400 273.738,388.400 272.657 C 388.400 271.762,388.641 271.105,389.054 270.874 C 389.476 270.638,389.777 269.783,389.904 268.454 C 390.027 267.177,390.292 266.400,390.604 266.400 C 391.208 266.400,391.587 265.138,391.595 263.100 C 391.598 262.036,391.774 261.600,392.200 261.600 C 392.661 261.600,392.800 261.089,392.800 259.400 C 392.800 257.733,392.994 257.006,393.600 256.400 C 394.219 255.781,394.400 255.067,394.400 253.247 C 394.400 251.230,394.514 250.863,395.200 250.684 C 395.909 250.499,396.000 250.138,396.000 247.534 C 396.000 245.026,396.118 244.519,396.800 244.093 C 397.502 243.654,397.600 243.160,397.600 240.059 C 397.600 237.032,397.715 236.420,398.400 235.800 C 399.114 235.154,399.200 234.568,399.200 230.338 C 399.200 227.446,399.356 225.600,399.600 225.600 C 399.863 225.600,400.000 216.800,400.000 200.000 C 400.000 183.200,399.863 174.400,399.600 174.400 C 399.356 174.400,399.200 172.554,399.200 169.662 C 399.200 165.432,399.114 164.846,398.400 164.200 C 397.715 163.580,397.600 162.968,397.600 159.941 C 397.600 156.840,397.502 156.346,396.800 155.907 C 396.118 155.481,396.000 154.974,396.000 152.466 C 396.000 149.862,395.909 149.501,395.200 149.316 C 394.514 149.137,394.400 148.770,394.400 146.753 C 394.400 144.933,394.219 144.219,393.600 143.600 C 392.994 142.994,392.800 142.267,392.800 140.600 C 392.800 138.911,392.661 138.400,392.200 138.400 C 391.806 138.400,391.600 138.006,391.600 137.250 C 391.600 135.324,391.128 133.600,390.601 133.600 C 390.292 133.600,390.026 132.815,389.904 131.546 C 389.777 130.217,389.476 129.362,389.054 129.126 C 388.646 128.898,388.400 128.241,388.400 127.380 C 388.400 126.267,388.245 126.000,387.600 126.000 C 386.895 126.000,386.800 125.733,386.800 123.763 C 386.800 121.862,386.680 121.494,386.000 121.316 C 385.373 121.152,385.200 120.770,385.200 119.553 C 385.200 118.267,385.063 118.000,384.400 118.000 C 383.733 118.000,383.600 117.733,383.600 116.400 C 383.600 115.067,383.467 114.800,382.800 114.800 C 382.137 114.800,382.000 114.533,382.000 113.247 C 382.000 112.030,381.827 111.648,381.200 111.484 C 380.617 111.332,380.400 110.938,380.400 110.037 C 380.400 109.067,380.228 108.800,379.600 108.800 C 378.933 108.800,378.800 108.533,378.800 107.200 C 378.800 105.867,378.667 105.600,378.000 105.600 C 377.333 105.600,377.200 105.333,377.200 104.000 C 377.200 102.667,377.067 102.400,376.400 102.400 C 375.733 102.400,375.600 102.133,375.600 100.800 C 375.600 99.701,375.426 99.200,375.045 99.200 C 374.726 99.200,374.377 98.602,374.226 97.800 C 374.069 96.962,373.730 96.400,373.382 96.400 C 373.058 96.400,372.800 96.029,372.800 95.563 C 372.800 95.062,372.479 94.641,372.000 94.516 C 371.426 94.366,371.200 93.970,371.200 93.116 C 371.200 92.262,370.974 91.866,370.400 91.716 C 369.960 91.601,369.600 91.211,369.600 90.850 C 369.600 90.488,369.240 89.968,368.800 89.693 C 368.290 89.374,368.000 88.760,368.000 87.997 C 368.000 87.067,367.822 86.800,367.200 86.800 C 366.667 86.800,366.400 86.533,366.400 86.000 C 366.400 85.467,366.133 85.200,365.600 85.200 C 364.948 85.200,364.800 84.933,364.800 83.763 C 364.800 82.662,364.613 82.276,364.000 82.116 C 363.557 82.000,363.200 81.570,363.200 81.153 C 363.200 80.667,362.917 80.400,362.400 80.400 C 361.878 80.400,361.600 80.133,361.600 79.633 C 361.600 78.441,361.169 77.600,360.557 77.600 C 360.251 77.600,360.000 77.240,360.000 76.800 C 360.000 76.267,359.733 76.000,359.200 76.000 C 358.667 76.000,358.400 75.733,358.400 75.200 C 358.400 74.756,358.133 74.400,357.800 74.400 C 357.467 74.400,357.200 74.044,357.200 73.600 C 357.200 73.082,356.933 72.800,356.445 72.800 C 355.896 72.800,355.616 72.411,355.422 71.379 C 355.276 70.597,354.903 69.861,354.593 69.742 C 354.284 69.623,353.921 69.183,353.788 68.763 C 353.655 68.343,353.309 68.000,353.020 68.000 C 352.730 68.000,352.399 67.640,352.284 67.200 C 352.169 66.760,351.788 66.400,351.437 66.400 C 351.067 66.400,350.800 66.065,350.800 65.600 C 350.800 65.067,350.533 64.800,350.000 64.800 C 349.467 64.800,349.200 64.533,349.200 64.000 C 349.200 63.467,348.933 63.200,348.400 63.200 C 347.867 63.200,347.600 62.933,347.600 62.400 C 347.600 61.883,347.333 61.600,346.847 61.600 C 346.430 61.600,346.000 61.243,345.884 60.800 C 345.769 60.360,345.388 60.000,345.037 60.000 C 344.687 60.000,344.400 59.730,344.400 59.400 C 344.400 59.067,344.044 58.800,343.600 58.800 C 343.067 58.800,342.800 58.533,342.800 58.000 C 342.800 57.556,342.533 57.200,342.200 57.200 C 341.867 57.200,341.600 56.844,341.600 56.400 C 341.600 55.867,341.333 55.600,340.800 55.600 C 340.267 55.600,340.000 55.333,340.000 54.800 C 340.000 54.267,339.733 54.000,339.200 54.000 C 338.667 54.000,338.400 53.733,338.400 53.200 C 338.400 52.667,338.133 52.400,337.600 52.400 C 337.067 52.400,336.800 52.133,336.800 51.600 C 336.800 51.067,336.533 50.800,336.000 50.800 C 335.467 50.800,335.200 50.533,335.200 50.000 C 335.200 49.483,334.933 49.200,334.447 49.200 C 334.030 49.200,333.600 48.843,333.484 48.400 C 333.369 47.960,332.988 47.600,332.637 47.600 C 332.287 47.600,332.000 47.342,332.000 47.027 C 332.000 46.712,331.657 46.345,331.237 46.212 C 330.817 46.079,330.377 45.716,330.258 45.407 C 330.139 45.097,329.419 44.727,328.658 44.584 C 327.771 44.418,327.202 44.051,327.074 43.562 C 326.965 43.143,326.588 42.800,326.237 42.800 C 325.887 42.800,325.600 42.530,325.600 42.200 C 325.600 41.870,325.342 41.600,325.027 41.600 C 324.712 41.600,324.340 41.240,324.200 40.800 C 324.060 40.360,323.598 40.000,323.173 40.000 C 322.748 40.000,322.400 39.749,322.400 39.443 C 322.400 38.831,321.559 38.400,320.367 38.400 C 319.867 38.400,319.600 38.122,319.600 37.600 C 319.600 37.083,319.333 36.800,318.847 36.800 C 318.430 36.800,318.000 36.443,317.884 36.000 C 317.724 35.387,317.338 35.200,316.237 35.200 C 315.067 35.200,314.800 35.052,314.800 34.400 C 314.800 33.867,314.533 33.600,314.000 33.600 C 313.467 33.600,313.200 33.333,313.200 32.800 C 313.200 32.178,312.933 32.000,312.003 32.000 C 311.240 32.000,310.626 31.710,310.307 31.200 C 310.032 30.760,309.512 30.400,309.150 30.400 C 308.789 30.400,308.399 30.040,308.284 29.600 C 308.134 29.026,307.738 28.800,306.884 28.800 C 306.030 28.800,305.634 28.574,305.484 28.000 C 305.359 27.521,304.938 27.200,304.437 27.200 C 303.977 27.200,303.600 26.950,303.600 26.645 C 303.600 26.326,303.002 25.977,302.200 25.826 C 301.362 25.669,300.800 25.330,300.800 24.982 C 300.800 24.570,300.333 24.400,299.200 24.400 C 297.867 24.400,297.600 24.267,297.600 23.600 C 297.600 22.933,297.333 22.800,296.000 22.800 C 294.667 22.800,294.400 22.667,294.400 22.000 C 294.400 21.358,294.133 21.200,293.047 21.200 C 292.030 21.200,291.641 21.001,291.484 20.400 C 291.330 19.811,290.938 19.600,290.000 19.600 C 289.062 19.600,288.670 19.389,288.516 18.800 C 288.352 18.173,287.970 18.000,286.753 18.000 C 285.467 18.000,285.200 17.863,285.200 17.200 C 285.200 16.533,284.933 16.400,283.600 16.400 C 282.267 16.400,282.000 16.267,282.000 15.600 C 282.000 14.937,281.733 14.800,280.447 14.800 C 279.230 14.800,278.848 14.627,278.684 14.000 C 278.510 13.334,278.138 13.200,276.464 13.200 C 274.805 13.200,274.410 13.060,274.200 12.400 C 274.012 11.808,273.595 11.600,272.593 11.600 C 271.757 11.600,271.100 11.350,270.874 10.946 C 270.638 10.524,269.783 10.223,268.454 10.096 C 267.075 9.963,266.400 9.718,266.400 9.349 C 266.400 8.966,265.864 8.800,264.633 8.800 C 262.486 8.800,261.600 8.496,261.600 7.757 C 261.600 7.345,260.999 7.200,259.296 7.200 C 257.426 7.200,256.898 7.050,256.493 6.400 C 256.078 5.736,255.560 5.600,253.443 5.600 C 251.230 5.600,250.866 5.494,250.684 4.800 C 250.499 4.091,250.138 4.000,247.534 4.000 C 245.026 4.000,244.519 3.882,244.093 3.200 C 243.657 2.502,243.160 2.400,240.197 2.400 C 237.333 2.400,236.674 2.274,236.000 1.600 C 235.289 0.889,234.667 0.800,230.400 0.800 C 227.467 0.800,225.600 0.644,225.600 0.400 C 225.600 0.138,216.800 0.000,200.000 0.000 C 183.200 0.000,174.400 0.138,174.400 0.400 M133.126 91.255 C 133.635 91.445,134.715 91.601,135.526 91.601 C 137.958 91.604,142.193 94.968,142.668 97.274 C 142.790 97.865,143.123 98.438,143.407 98.547 C 143.692 98.657,144.043 99.286,144.188 99.945 C 144.333 100.605,144.696 101.348,144.994 101.595 C 145.293 101.843,145.656 102.745,145.800 103.600 C 145.944 104.455,146.300 105.351,146.589 105.591 C 146.879 105.832,147.230 106.634,147.369 107.374 C 147.508 108.114,147.886 108.940,148.211 109.209 C 148.535 109.478,148.801 110.081,148.803 110.549 C 148.804 111.017,149.163 111.940,149.600 112.600 C 150.037 113.260,150.397 114.160,150.400 114.600 C 150.403 115.040,150.763 115.940,151.200 116.600 C 151.637 117.260,151.996 118.181,151.997 118.646 C 151.999 119.111,152.360 119.950,152.800 120.509 C 153.240 121.069,153.601 121.858,153.603 122.263 C 153.604 122.668,153.963 123.540,154.400 124.200 C 154.837 124.860,155.196 125.822,155.197 126.337 C 155.199 126.852,155.560 127.731,156.000 128.291 C 156.440 128.850,156.800 129.712,156.800 130.205 C 156.800 130.698,157.065 131.322,157.389 131.591 C 157.714 131.860,158.096 132.737,158.240 133.540 C 158.384 134.343,158.735 135.270,159.020 135.600 C 159.304 135.930,159.666 136.740,159.823 137.400 C 159.979 138.060,160.338 138.870,160.620 139.200 C 160.902 139.530,161.256 140.469,161.408 141.286 C 161.560 142.103,161.935 142.980,162.242 143.235 C 162.549 143.490,162.800 143.994,162.800 144.355 C 162.800 144.716,163.160 145.684,163.600 146.504 C 164.912 148.952,164.700 153.996,163.177 156.600 C 162.533 157.700,161.814 159.045,161.579 159.589 C 161.168 160.542,160.595 161.262,159.100 162.703 C 158.715 163.074,158.400 163.599,158.400 163.869 C 158.400 164.139,158.158 164.504,157.862 164.680 C 157.567 164.856,156.462 165.990,155.407 167.200 C 153.085 169.863,147.669 175.885,146.700 176.881 C 146.315 177.276,146.000 177.828,146.000 178.106 C 146.000 178.384,145.640 179.284,145.200 180.104 C 144.760 180.925,144.400 181.830,144.400 182.114 C 144.400 182.398,144.760 183.337,145.200 184.200 C 145.640 185.063,146.000 186.082,146.000 186.465 C 146.000 186.847,146.229 187.304,146.508 187.480 C 146.788 187.656,147.240 188.250,147.513 188.800 C 147.785 189.350,148.361 190.340,148.792 191.000 C 149.223 191.660,149.876 192.740,150.242 193.400 C 150.609 194.060,151.154 194.744,151.454 194.920 C 151.754 195.096,152.000 195.441,152.000 195.686 C 152.000 195.932,152.274 196.418,152.610 196.766 C 153.475 197.666,155.200 200.363,155.200 200.818 C 155.200 201.028,155.362 201.200,155.560 201.200 C 155.759 201.200,156.295 201.785,156.751 202.500 C 158.201 204.770,158.568 205.258,160.000 206.815 C 160.770 207.652,161.760 208.800,162.200 209.365 C 162.640 209.930,163.270 210.741,163.600 211.166 C 163.930 211.591,164.650 212.516,165.200 213.220 C 165.750 213.925,167.235 215.550,168.500 216.831 C 169.765 218.112,170.805 219.304,170.811 219.480 C 170.817 219.656,171.402 220.232,172.111 220.759 C 172.820 221.286,173.940 222.403,174.600 223.240 C 175.260 224.078,175.943 224.771,176.117 224.781 C 176.292 224.792,177.433 225.790,178.652 227.000 C 179.872 228.210,180.952 229.200,181.053 229.200 C 181.237 229.200,187.627 234.315,188.000 234.761 C 188.110 234.892,189.100 235.625,190.200 236.388 C 192.519 237.998,192.980 238.348,194.029 239.300 C 194.453 239.685,194.935 240.001,195.100 240.002 C 195.265 240.004,196.570 240.813,198.000 241.800 C 199.430 242.787,200.816 243.596,201.080 243.598 C 201.344 243.599,201.704 243.829,201.880 244.108 C 202.056 244.388,202.650 244.837,203.200 245.106 C 204.134 245.562,204.471 245.747,206.300 246.805 C 206.685 247.028,207.720 247.566,208.600 248.000 C 209.480 248.434,210.470 248.941,210.800 249.127 C 212.951 250.334,214.838 251.200,215.318 251.200 C 215.626 251.200,216.293 251.560,216.800 252.000 C 217.307 252.440,217.966 252.800,218.263 252.800 C 218.560 252.800,219.475 253.160,220.296 253.600 C 221.116 254.040,222.137 254.400,222.563 254.400 C 222.989 254.400,223.647 254.681,224.027 255.024 C 225.871 256.694,234.325 256.646,236.291 254.955 C 236.901 254.430,237.613 254.001,237.873 254.000 C 238.133 254.000,238.450 253.685,238.576 253.300 C 238.703 252.915,239.480 251.831,240.303 250.892 C 241.126 249.953,242.160 248.729,242.600 248.173 C 243.040 247.617,243.778 246.740,244.240 246.225 C 244.702 245.709,245.494 244.619,245.998 243.803 C 246.503 242.986,247.519 241.661,248.256 240.859 C 248.993 240.057,249.597 239.173,249.598 238.896 C 249.599 238.619,249.960 238.084,250.400 237.707 C 250.840 237.330,251.200 236.799,251.200 236.525 C 251.200 236.252,251.560 235.835,252.000 235.600 C 252.440 235.365,252.800 234.939,252.800 234.654 C 252.800 233.882,257.169 229.200,257.889 229.200 C 258.232 229.200,258.742 228.885,259.023 228.500 C 260.000 227.164,270.000 227.451,270.000 228.815 C 270.000 229.027,270.426 229.200,270.946 229.200 C 271.466 229.200,272.321 229.537,272.846 229.948 C 273.371 230.359,274.373 230.821,275.072 230.974 C 275.772 231.126,276.559 231.510,276.821 231.826 C 277.083 232.142,277.591 232.401,277.949 232.403 C 278.307 232.404,279.140 232.763,279.800 233.200 C 280.460 233.637,281.332 233.996,281.737 233.997 C 282.142 233.999,282.931 234.360,283.491 234.800 C 284.050 235.240,284.819 235.600,285.200 235.600 C 285.581 235.600,286.350 235.960,286.909 236.400 C 287.469 236.840,288.168 237.201,288.463 237.203 C 288.758 237.204,289.540 237.563,290.200 238.000 C 290.860 238.437,291.642 238.796,291.937 238.797 C 292.232 238.799,292.931 239.160,293.491 239.600 C 294.050 240.040,294.822 240.400,295.205 240.400 C 295.588 240.400,296.102 240.641,296.346 240.935 C 296.591 241.230,297.513 241.687,298.395 241.951 C 299.278 242.216,300.000 242.591,300.000 242.784 C 300.000 242.978,300.528 243.252,301.172 243.394 C 301.817 243.536,302.559 243.910,302.821 244.226 C 303.083 244.542,303.463 244.800,303.666 244.800 C 304.246 244.800,309.123 247.151,309.369 247.550 C 309.491 247.748,310.206 248.025,310.957 248.166 C 311.708 248.306,312.416 248.664,312.529 248.960 C 312.643 249.257,313.381 249.620,314.168 249.768 C 314.956 249.915,315.600 250.205,315.600 250.411 C 315.600 250.616,316.026 250.892,316.546 251.022 C 317.066 251.153,318.276 252.058,319.234 253.035 L 320.976 254.810 320.894 262.581 C 320.831 268.578,320.666 270.746,320.170 272.076 C 319.817 273.024,319.381 274.736,319.201 275.879 C 319.022 277.023,318.588 278.368,318.237 278.868 C 317.887 279.369,317.600 280.272,317.600 280.877 C 317.600 281.851,316.625 284.300,315.561 286.000 C 315.354 286.330,314.963 287.058,314.692 287.618 C 314.422 288.178,313.980 288.898,313.711 289.218 C 313.443 289.538,312.813 290.282,312.311 290.871 C 311.810 291.460,310.952 292.495,310.404 293.171 C 309.857 293.847,309.182 294.400,308.904 294.400 C 308.627 294.400,308.400 294.627,308.400 294.904 C 308.400 295.182,307.847 295.857,307.171 296.404 C 306.495 296.952,305.460 297.810,304.871 298.311 C 303.253 299.688,303.030 299.850,301.975 300.406 C 301.439 300.688,300.910 301.028,300.800 301.161 C 300.429 301.608,297.360 303.600,297.042 303.600 C 296.868 303.600,296.269 303.960,295.709 304.400 C 295.150 304.840,294.430 305.200,294.109 305.200 C 293.789 305.200,293.069 305.560,292.509 306.000 C 291.950 306.440,291.178 306.800,290.795 306.800 C 290.412 306.800,289.878 307.065,289.609 307.389 C 289.340 307.714,288.506 308.094,287.755 308.235 C 287.005 308.375,285.725 308.830,284.911 309.245 C 284.097 309.660,282.898 310.000,282.247 310.000 C 281.596 310.000,280.715 310.315,280.289 310.700 C 279.127 311.752,250.857 311.771,249.000 310.722 C 248.340 310.349,246.778 309.932,245.528 309.796 C 244.278 309.661,243.041 309.291,242.779 308.975 C 242.505 308.644,241.598 308.400,240.645 308.400 C 239.734 308.400,238.316 308.040,237.496 307.600 C 236.675 307.160,235.595 306.800,235.096 306.800 C 234.596 306.800,233.516 306.440,232.696 306.000 C 231.875 305.560,230.835 305.200,230.386 305.200 C 229.936 305.200,228.862 304.840,228.000 304.400 C 227.138 303.960,226.020 303.599,225.516 303.597 C 225.012 303.596,224.060 303.237,223.400 302.800 C 222.740 302.363,221.840 302.003,221.400 302.001 C 220.960 301.999,220.056 301.665,219.392 301.260 C 218.727 300.855,217.512 300.398,216.692 300.244 C 215.871 300.090,215.200 299.808,215.200 299.617 C 215.200 299.426,214.476 299.148,213.592 298.999 C 212.708 298.849,211.728 298.471,211.415 298.158 C 211.102 297.845,210.251 297.477,209.523 297.340 C 208.795 297.202,207.930 296.865,207.600 296.590 C 207.270 296.314,206.427 295.967,205.728 295.819 C 205.028 295.670,204.256 295.309,204.013 295.016 C 203.770 294.723,202.966 294.370,202.226 294.231 C 201.486 294.092,200.660 293.714,200.391 293.389 C 200.122 293.065,199.717 292.800,199.490 292.800 C 199.005 292.800,194.892 290.787,192.600 289.428 C 191.720 288.907,189.877 287.908,188.504 287.209 C 187.132 286.510,185.904 285.769,185.777 285.563 C 185.650 285.357,184.973 284.914,184.273 284.580 C 181.855 283.424,180.800 282.755,180.800 282.378 C 180.800 282.170,180.544 282.000,180.231 282.000 C 179.918 282.000,179.127 281.550,178.473 281.000 C 177.819 280.450,177.130 279.988,176.942 279.973 C 176.754 279.959,175.790 279.325,174.800 278.564 C 173.810 277.803,172.685 277.074,172.300 276.944 C 171.915 276.813,171.600 276.578,171.600 276.421 C 171.600 276.263,170.655 275.529,169.500 274.790 C 168.345 274.050,167.310 273.320,167.200 273.169 C 167.090 273.017,164.930 271.238,162.400 269.215 C 159.870 267.192,157.656 265.281,157.480 264.969 C 157.304 264.656,157.014 264.400,156.835 264.400 C 155.855 264.400,130.800 239.607,130.800 238.637 C 130.800 238.541,130.125 237.766,129.300 236.913 C 127.606 235.161,124.996 232.151,123.800 230.568 C 123.360 229.985,122.685 229.219,122.300 228.866 C 121.915 228.512,121.600 228.052,121.600 227.845 C 121.600 227.637,121.338 227.182,121.019 226.834 C 118.634 224.236,116.800 221.798,116.800 221.227 C 116.800 220.992,116.575 220.799,116.300 220.797 C 115.858 220.795,115.488 220.320,113.797 217.588 C 113.576 217.231,113.081 216.624,112.697 216.240 C 112.314 215.857,112.000 215.286,112.000 214.971 C 112.000 214.657,111.838 214.400,111.640 214.400 C 111.441 214.400,110.905 213.815,110.449 213.100 C 109.992 212.385,109.389 211.440,109.109 211.000 C 108.829 210.560,108.375 210.056,108.100 209.880 C 107.825 209.704,107.600 209.373,107.600 209.143 C 107.600 208.914,107.234 208.248,106.786 207.663 C 103.632 203.542,102.800 202.390,102.800 202.143 C 102.800 201.989,102.501 201.533,102.136 201.129 C 101.377 200.291,100.687 199.160,99.817 197.327 C 99.484 196.627,99.053 195.956,98.858 195.836 C 98.663 195.716,97.991 194.578,97.365 193.309 C 96.739 192.039,95.905 190.571,95.513 190.046 C 95.121 189.521,94.800 188.776,94.800 188.389 C 94.800 188.002,94.540 187.586,94.222 187.464 C 93.904 187.342,93.524 186.603,93.378 185.821 C 93.231 185.039,92.965 184.400,92.787 184.400 C 92.608 184.400,92.264 183.800,92.022 183.067 C 91.780 182.334,91.226 181.036,90.791 180.183 C 90.356 179.329,90.000 178.386,90.000 178.087 C 90.000 177.788,89.730 177.273,89.400 176.943 C 89.070 176.613,88.794 175.951,88.786 175.471 C 88.779 174.992,88.425 173.880,88.000 173.000 C 87.575 172.120,87.221 170.994,87.214 170.499 C 87.206 170.003,86.840 168.925,86.400 168.104 C 85.960 167.284,85.599 165.889,85.598 165.006 C 85.596 164.123,85.308 162.860,84.958 162.200 C 84.607 161.540,84.175 159.470,83.998 157.600 C 83.820 155.730,83.456 152.684,83.189 150.830 C 82.806 148.178,82.808 146.604,83.195 143.430 C 83.466 141.214,83.825 137.870,83.992 136.000 C 84.160 134.130,84.590 131.931,84.948 131.113 C 85.307 130.295,85.601 129.035,85.601 128.313 C 85.602 127.591,85.962 126.411,86.401 125.690 C 86.841 124.970,87.200 123.918,87.200 123.352 C 87.200 122.786,87.464 121.846,87.787 121.262 C 88.111 120.678,88.647 119.570,88.979 118.800 C 89.312 118.030,89.741 117.130,89.933 116.800 C 90.125 116.470,90.713 115.325,91.241 114.257 C 91.768 113.188,92.425 112.223,92.700 112.114 C 92.975 112.004,93.200 111.589,93.200 111.191 C 93.200 110.493,94.250 109.014,95.700 107.671 C 96.085 107.314,96.400 106.857,96.400 106.654 C 96.400 105.818,105.199 96.400,105.981 96.400 C 106.144 96.400,106.693 96.040,107.200 95.600 C 107.707 95.160,108.343 94.800,108.612 94.800 C 108.882 94.800,109.317 94.542,109.579 94.226 C 109.841 93.910,110.628 93.530,111.328 93.381 C 112.027 93.233,112.870 92.877,113.200 92.592 C 113.530 92.307,115.240 91.875,117.000 91.634 C 118.760 91.392,121.010 91.034,122.000 90.837 C 124.021 90.436,131.702 90.725,133.126 91.255 " stroke="none" fill="#24c414" fill-rule="evenodd"></path><path id="path2" d="M122.000 90.837 C 121.010 91.034,118.760 91.392,117.000 91.634 C 115.240 91.875,113.530 92.307,113.200 92.592 C 112.870 92.877,112.027 93.233,111.328 93.381 C 110.628 93.530,109.841 93.910,109.579 94.226 C 109.317 94.542,108.882 94.800,108.612 94.800 C 108.343 94.800,107.707 95.160,107.200 95.600 C 106.693 96.040,106.144 96.400,105.981 96.400 C 105.199 96.400,96.400 105.818,96.400 106.654 C 96.400 106.857,96.085 107.314,95.700 107.671 C 94.250 109.014,93.200 110.493,93.200 111.191 C 93.200 111.589,92.975 112.004,92.700 112.114 C 92.425 112.223,91.768 113.188,91.241 114.257 C 90.713 115.325,90.125 116.470,89.933 116.800 C 89.741 117.130,89.312 118.030,88.979 118.800 C 88.647 119.570,88.111 120.678,87.787 121.262 C 87.464 121.846,87.200 122.786,87.200 123.352 C 87.200 123.918,86.841 124.970,86.401 125.690 C 85.962 126.411,85.602 127.591,85.601 128.313 C 85.601 129.035,85.307 130.295,84.948 131.113 C 84.590 131.931,84.160 134.130,83.992 136.000 C 83.825 137.870,83.466 141.214,83.195 143.430 C 82.808 146.604,82.806 148.178,83.189 150.830 C 83.456 152.684,83.820 155.730,83.998 157.600 C 84.175 159.470,84.607 161.540,84.958 162.200 C 85.308 162.860,85.596 164.123,85.598 165.006 C 85.599 165.889,85.960 167.284,86.400 168.104 C 86.840 168.925,87.206 170.003,87.214 170.499 C 87.221 170.994,87.575 172.120,88.000 173.000 C 88.425 173.880,88.779 174.992,88.786 175.471 C 88.794 175.951,89.070 176.613,89.400 176.943 C 89.730 177.273,90.000 177.788,90.000 178.087 C 90.000 178.386,90.356 179.329,90.791 180.183 C 91.226 181.036,91.780 182.334,92.022 183.067 C 92.264 183.800,92.608 184.400,92.787 184.400 C 92.965 184.400,93.231 185.039,93.378 185.821 C 93.524 186.603,93.904 187.342,94.222 187.464 C 94.540 187.586,94.800 188.002,94.800 188.389 C 94.800 188.776,95.121 189.521,95.513 190.046 C 95.905 190.571,96.739 192.039,97.365 193.309 C 97.991 194.578,98.663 195.716,98.858 195.836 C 99.053 195.956,99.484 196.627,99.817 197.327 C 100.687 199.160,101.377 200.291,102.136 201.129 C 102.501 201.533,102.800 201.989,102.800 202.143 C 102.800 202.390,103.632 203.542,106.786 207.663 C 107.234 208.248,107.600 208.914,107.600 209.143 C 107.600 209.373,107.825 209.704,108.100 209.880 C 108.375 210.056,108.829 210.560,109.109 211.000 C 109.389 211.440,109.992 212.385,110.449 213.100 C 110.905 213.815,111.441 214.400,111.640 214.400 C 111.838 214.400,112.000 214.657,112.000 214.971 C 112.000 215.286,112.314 215.857,112.697 216.240 C 113.081 216.624,113.576 217.231,113.797 217.588 C 115.488 220.320,115.858 220.795,116.300 220.797 C 116.575 220.799,116.800 220.992,116.800 221.227 C 116.800 221.798,118.634 224.236,121.019 226.834 C 121.338 227.182,121.600 227.637,121.600 227.845 C 121.600 228.052,121.915 228.512,122.300 228.866 C 122.685 229.219,123.360 229.985,123.800 230.568 C 124.996 232.151,127.606 235.161,129.300 236.913 C 130.125 237.766,130.800 238.541,130.800 238.637 C 130.800 239.607,155.855 264.400,156.835 264.400 C 157.014 264.400,157.304 264.656,157.480 264.969 C 157.656 265.281,159.870 267.192,162.400 269.215 C 164.930 271.238,167.090 273.017,167.200 273.169 C 167.310 273.320,168.345 274.050,169.500 274.790 C 170.655 275.529,171.600 276.263,171.600 276.421 C 171.600 276.578,171.915 276.813,172.300 276.944 C 172.685 277.074,173.810 277.803,174.800 278.564 C 175.790 279.325,176.754 279.959,176.942 279.973 C 177.130 279.988,177.819 280.450,178.473 281.000 C 179.127 281.550,179.918 282.000,180.231 282.000 C 180.544 282.000,180.800 282.170,180.800 282.378 C 180.800 282.755,181.855 283.424,184.273 284.580 C 184.973 284.914,185.650 285.357,185.777 285.563 C 185.904 285.769,187.132 286.510,188.504 287.209 C 189.877 287.908,191.720 288.907,192.600 289.428 C 194.892 290.787,199.005 292.800,199.490 292.800 C 199.717 292.800,200.122 293.065,200.391 293.389 C 200.660 293.714,201.486 294.092,202.226 294.231 C 202.966 294.370,203.770 294.723,204.013 295.016 C 204.256 295.309,205.028 295.670,205.728 295.819 C 206.427 295.967,207.270 296.314,207.600 296.590 C 207.930 296.865,208.795 297.202,209.523 297.340 C 210.251 297.477,211.102 297.845,211.415 298.158 C 211.728 298.471,212.708 298.849,213.592 298.999 C 214.476 299.148,215.200 299.426,215.200 299.617 C 215.200 299.808,215.871 300.090,216.692 300.244 C 217.512 300.398,218.727 300.855,219.392 301.260 C 220.056 301.665,220.960 301.999,221.400 302.001 C 221.840 302.003,222.740 302.363,223.400 302.800 C 224.060 303.237,225.012 303.596,225.516 303.597 C 226.020 303.599,227.138 303.960,228.000 304.400 C 228.862 304.840,229.936 305.200,230.386 305.200 C 230.835 305.200,231.875 305.560,232.696 306.000 C 233.516 306.440,234.596 306.800,235.096 306.800 C 235.595 306.800,236.675 307.160,237.496 307.600 C 238.323 308.043,239.704 308.388,240.594 308.373 L 242.200 308.346 240.400 307.799 C 239.410 307.497,237.520 306.951,236.200 306.583 C 234.880 306.216,233.613 305.764,233.384 305.579 C 233.156 305.393,232.256 305.063,231.384 304.844 C 228.467 304.110,222.828 302.115,219.774 300.735 C 218.879 300.331,217.879 300.000,217.550 300.000 C 217.222 300.000,216.604 299.736,216.176 299.413 C 215.749 299.090,215.130 298.814,214.800 298.800 C 214.470 298.786,213.300 298.332,212.200 297.791 C 211.100 297.250,209.896 296.806,209.524 296.804 C 209.152 296.802,208.751 296.645,208.634 296.455 C 208.517 296.265,207.609 295.883,206.618 295.605 C 205.626 295.327,204.610 294.853,204.359 294.550 C 204.108 294.248,203.690 294.000,203.432 294.000 C 202.963 294.000,196.740 291.125,195.600 290.381 C 195.270 290.166,194.280 289.634,193.400 289.200 C 192.520 288.766,191.440 288.199,191.000 287.942 C 189.549 287.093,189.011 286.800,188.000 286.306 C 187.450 286.038,186.190 285.263,185.200 284.584 C 184.210 283.906,183.120 283.246,182.778 283.118 C 182.008 282.830,174.543 277.782,171.956 275.800 C 171.381 275.360,170.508 274.730,170.015 274.400 C 163.968 270.352,152.938 260.687,143.312 251.000 C 135.250 242.887,129.643 236.779,124.783 230.811 C 123.802 229.608,122.730 228.330,122.400 227.972 C 122.070 227.615,121.440 226.817,121.000 226.199 C 120.560 225.582,119.055 223.620,117.656 221.838 C 116.256 220.057,114.681 217.970,114.156 217.200 C 113.631 216.430,112.477 214.810,111.593 213.600 C 108.738 209.693,102.107 199.959,99.716 196.167 C 96.871 191.654,90.400 178.764,90.400 177.611 C 90.400 177.369,90.148 176.773,89.839 176.286 C 89.531 175.799,89.150 174.770,88.993 174.000 C 88.836 173.230,88.534 172.385,88.323 172.122 C 87.969 171.682,87.716 170.827,86.392 165.600 C 86.141 164.610,85.593 162.450,85.175 160.800 C 83.603 154.600,83.497 139.054,84.992 133.800 C 85.305 132.700,85.735 130.810,85.947 129.600 C 86.159 128.390,86.649 126.500,87.036 125.400 C 88.671 120.747,89.392 118.964,89.881 118.369 C 90.167 118.021,90.400 117.569,90.400 117.363 C 90.400 116.251,96.088 107.412,98.612 104.600 C 105.042 97.438,107.120 95.846,113.675 93.063 C 117.558 91.414,134.107 91.064,137.266 92.563 C 140.040 93.879,143.975 99.592,145.615 104.682 C 145.884 105.517,146.227 106.380,146.377 106.600 C 146.527 106.820,147.169 108.350,147.804 110.000 C 148.439 111.650,149.193 113.355,149.479 113.789 C 149.766 114.223,150.000 114.833,150.000 115.145 C 150.000 115.720,151.045 118.178,152.437 120.879 C 152.857 121.693,153.200 122.573,153.200 122.835 C 153.200 123.098,153.542 124.052,153.960 124.956 C 154.377 125.860,155.198 127.770,155.782 129.200 C 156.367 130.630,157.105 132.278,157.423 132.862 C 157.740 133.446,158.000 134.146,158.000 134.418 C 158.000 134.690,158.360 135.697,158.800 136.656 C 160.297 139.918,161.095 141.796,162.008 144.200 C 162.509 145.520,163.163 147.167,163.460 147.860 C 164.351 149.940,164.142 153.210,162.960 155.652 C 160.565 160.603,161.000 160.031,151.377 170.850 C 142.712 180.591,142.419 182.044,147.508 189.988 C 148.329 191.269,149.491 193.101,150.090 194.059 C 150.690 195.016,152.082 197.060,153.182 198.600 C 154.283 200.140,155.413 201.736,155.692 202.147 C 160.998 209.953,175.074 225.044,182.930 231.349 C 185.311 233.260,187.471 235.009,187.730 235.236 C 188.891 236.252,201.477 244.892,202.182 245.157 C 202.412 245.243,204.279 246.278,206.332 247.457 C 208.384 248.636,210.184 249.600,210.332 249.600 C 210.546 249.600,215.699 252.026,218.828 253.601 C 229.203 258.822,235.966 258.057,241.085 251.085 C 241.897 249.978,243.072 248.515,243.694 247.836 C 244.316 247.156,245.309 245.880,245.900 245.000 C 246.492 244.120,247.656 242.565,248.488 241.544 C 249.319 240.524,250.000 239.574,250.000 239.433 C 250.000 239.113,252.529 235.775,255.190 232.582 C 258.591 228.501,265.661 226.427,268.478 228.684 C 268.765 228.914,269.450 229.238,270.000 229.403 C 270.550 229.569,272.530 230.415,274.400 231.284 C 279.273 233.549,280.608 234.169,284.200 235.832 C 287.560 237.388,300.428 243.633,310.600 248.645 C 317.662 252.124,319.957 253.895,320.402 256.209 L 320.708 257.800 320.754 256.183 C 320.804 254.433,318.479 251.609,316.500 251.016 C 316.005 250.868,315.600 250.586,315.600 250.391 C 315.600 250.196,314.956 249.915,314.168 249.768 C 313.381 249.620,312.643 249.257,312.529 248.960 C 312.416 248.664,311.708 248.306,310.957 248.166 C 310.206 248.025,309.491 247.748,309.369 247.550 C 309.123 247.151,304.246 244.800,303.666 244.800 C 303.463 244.800,303.083 244.542,302.821 244.226 C 302.559 243.910,301.817 243.536,301.172 243.394 C 300.528 243.252,300.000 242.978,300.000 242.784 C 300.000 242.591,299.278 242.216,298.395 241.951 C 297.513 241.687,296.591 241.230,296.346 240.935 C 296.102 240.641,295.588 240.400,295.205 240.400 C 294.822 240.400,294.050 240.040,293.491 239.600 C 292.931 239.160,292.232 238.799,291.937 238.797 C 291.642 238.796,290.860 238.437,290.200 238.000 C 289.540 237.563,288.758 237.204,288.463 237.203 C 288.168 237.201,287.469 236.840,286.909 236.400 C 286.350 235.960,285.581 235.600,285.200 235.600 C 284.819 235.600,284.050 235.240,283.491 234.800 C 282.931 234.360,282.142 233.999,281.737 233.997 C 281.332 233.996,280.460 233.637,279.800 233.200 C 279.140 232.763,278.307 232.404,277.949 232.403 C 277.591 232.401,277.083 232.142,276.821 231.826 C 276.559 231.510,275.772 231.126,275.072 230.974 C 274.373 230.821,273.371 230.359,272.846 229.948 C 272.321 229.537,271.466 229.200,270.946 229.200 C 270.426 229.200,270.000 229.027,270.000 228.815 C 270.000 227.451,260.000 227.164,259.023 228.500 C 258.742 228.885,258.232 229.200,257.889 229.200 C 257.169 229.200,252.800 233.882,252.800 234.654 C 252.800 234.939,252.440 235.365,252.000 235.600 C 251.560 235.835,251.200 236.252,251.200 236.525 C 251.200 236.799,250.840 237.330,250.400 237.707 C 249.960 238.084,249.599 238.619,249.598 238.896 C 249.597 239.173,248.993 240.057,248.256 240.859 C 247.519 241.661,246.503 242.986,245.998 243.803 C 245.494 244.619,244.702 245.709,244.240 246.225 C 243.778 246.740,243.040 247.617,242.600 248.173 C 242.160 248.729,241.126 249.953,240.303 250.892 C 239.480 251.831,238.703 252.915,238.576 253.300 C 238.450 253.685,238.133 254.000,237.873 254.000 C 237.613 254.001,236.901 254.430,236.291 254.955 C 234.325 256.646,225.871 256.694,224.027 255.024 C 223.647 254.681,222.989 254.400,222.563 254.400 C 222.137 254.400,221.116 254.040,220.296 253.600 C 219.475 253.160,218.560 252.800,218.263 252.800 C 217.966 252.800,217.307 252.440,216.800 252.000 C 216.293 251.560,215.626 251.200,215.318 251.200 C 214.838 251.200,212.951 250.334,210.800 249.127 C 210.470 248.941,209.480 248.434,208.600 248.000 C 207.720 247.566,206.685 247.028,206.300 246.805 C 204.471 245.747,204.134 245.562,203.200 245.106 C 202.650 244.837,202.056 244.388,201.880 244.108 C 201.704 243.829,201.344 243.599,201.080 243.598 C 200.816 243.596,199.430 242.787,198.000 241.800 C 196.570 240.813,195.265 240.004,195.100 240.002 C 194.935 240.001,194.453 239.685,194.029 239.300 C 192.980 238.348,192.519 237.998,190.200 236.388 C 189.100 235.625,188.110 234.892,188.000 234.761 C 187.627 234.315,181.237 229.200,181.053 229.200 C 180.952 229.200,179.872 228.210,178.652 227.000 C 177.433 225.790,176.292 224.792,176.117 224.781 C 175.943 224.771,175.260 224.078,174.600 223.240 C 173.940 222.403,172.820 221.286,172.111 220.759 C 171.402 220.232,170.817 219.656,170.811 219.480 C 170.805 219.304,169.765 218.112,168.500 216.831 C 167.235 215.550,165.750 213.925,165.200 213.220 C 164.650 212.516,163.930 211.591,163.600 211.166 C 163.270 210.741,162.640 209.930,162.200 209.365 C 161.760 208.800,160.770 207.652,160.000 206.815 C 158.568 205.258,158.201 204.770,156.751 202.500 C 156.295 201.785,155.759 201.200,155.560 201.200 C 155.362 201.200,155.200 201.028,155.200 200.818 C 155.200 200.363,153.475 197.666,152.610 196.766 C 152.274 196.418,152.000 195.932,152.000 195.686 C 152.000 195.441,151.754 195.096,151.454 194.920 C 151.154 194.744,150.609 194.060,150.242 193.400 C 149.876 192.740,149.223 191.660,148.792 191.000 C 148.361 190.340,147.785 189.350,147.513 188.800 C 147.240 188.250,146.788 187.656,146.508 187.480 C 146.229 187.304,146.000 186.847,146.000 186.465 C 146.000 186.082,145.640 185.063,145.200 184.200 C 144.760 183.337,144.400 182.398,144.400 182.114 C 144.400 181.830,144.760 180.925,145.200 180.104 C 145.640 179.284,146.000 178.384,146.000 178.106 C 146.000 177.828,146.315 177.276,146.700 176.881 C 147.669 175.885,153.085 169.863,155.407 167.200 C 156.462 165.990,157.567 164.856,157.862 164.680 C 158.158 164.504,158.400 164.139,158.400 163.869 C 158.400 163.599,158.715 163.074,159.100 162.703 C 160.595 161.262,161.168 160.542,161.579 159.589 C 161.814 159.045,162.533 157.700,163.177 156.600 C 164.700 153.996,164.912 148.952,163.600 146.504 C 163.160 145.684,162.800 144.716,162.800 144.355 C 162.800 143.994,162.549 143.490,162.242 143.235 C 161.935 142.980,161.560 142.103,161.408 141.286 C 161.256 140.469,160.902 139.530,160.620 139.200 C 160.338 138.870,159.979 138.060,159.823 137.400 C 159.666 136.740,159.304 135.930,159.020 135.600 C 158.735 135.270,158.384 134.343,158.240 133.540 C 158.096 132.737,157.714 131.860,157.389 131.591 C 157.065 131.322,156.800 130.698,156.800 130.205 C 156.800 129.712,156.440 128.850,156.000 128.291 C 155.560 127.731,155.199 126.852,155.197 126.337 C 155.196 125.822,154.837 124.860,154.400 124.200 C 153.963 123.540,153.604 122.668,153.603 122.263 C 153.601 121.858,153.240 121.069,152.800 120.509 C 152.360 119.950,151.999 119.111,151.997 118.646 C 151.996 118.181,151.637 117.260,151.200 116.600 C 150.763 115.940,150.403 115.040,150.400 114.600 C 150.397 114.160,150.037 113.260,149.600 112.600 C 149.163 111.940,148.804 111.017,148.803 110.549 C 148.801 110.081,148.535 109.478,148.211 109.209 C 147.886 108.940,147.508 108.114,147.369 107.374 C 147.230 106.634,146.879 105.832,146.589 105.591 C 146.300 105.351,145.944 104.455,145.800 103.600 C 145.656 102.745,145.293 101.843,144.994 101.595 C 144.696 101.348,144.333 100.605,144.188 99.945 C 144.043 99.286,143.692 98.657,143.407 98.547 C 143.123 98.438,142.790 97.865,142.668 97.274 C 142.193 94.968,137.958 91.604,135.526 91.601 C 134.715 91.601,133.635 91.445,133.126 91.255 C 131.702 90.725,124.021 90.436,122.000 90.837 M320.914 260.200 C 320.917 261.300,320.995 261.703,321.087 261.095 C 321.179 260.486,321.177 259.586,321.082 259.095 C 320.987 258.603,320.911 259.100,320.914 260.200 M320.481 265.926 C 320.391 268.281,319.136 274.147,317.961 277.702 C 317.542 278.967,317.200 280.276,317.200 280.610 C 317.200 281.461,314.202 287.477,312.819 289.400 C 309.674 293.774,301.804 300.417,296.200 303.428 C 295.760 303.665,295.040 304.051,294.600 304.286 C 294.160 304.521,293.350 304.912,292.800 305.154 C 292.250 305.396,291.530 305.749,291.200 305.938 C 289.579 306.867,286.724 308.042,284.200 308.820 C 282.660 309.295,280.860 309.862,280.200 310.080 C 277.026 311.128,274.986 311.254,263.705 311.106 C 254.261 310.981,251.428 310.820,250.000 310.324 C 249.010 309.981,247.300 309.515,246.200 309.290 C 245.100 309.064,243.750 308.741,243.200 308.571 C 242.314 308.297,242.260 308.335,242.728 308.905 C 243.042 309.289,244.176 309.650,245.528 309.796 C 246.778 309.932,248.340 310.349,249.000 310.722 C 250.857 311.771,279.127 311.752,280.289 310.700 C 280.715 310.315,281.596 310.000,282.247 310.000 C 282.898 310.000,284.097 309.660,284.911 309.245 C 285.725 308.830,287.005 308.375,287.755 308.235 C 288.506 308.094,289.340 307.714,289.609 307.389 C 289.878 307.065,290.412 306.800,290.795 306.800 C 291.178 306.800,291.950 306.440,292.509 306.000 C 293.069 305.560,293.789 305.200,294.109 305.200 C 294.430 305.200,295.150 304.840,295.709 304.400 C 296.269 303.960,296.868 303.600,297.042 303.600 C 297.360 303.600,300.429 301.608,300.800 301.161 C 300.910 301.028,301.439 300.688,301.975 300.406 C 303.030 299.850,303.253 299.688,304.871 298.311 C 305.460 297.810,306.495 296.952,307.171 296.404 C 307.847 295.857,308.400 295.182,308.400 294.904 C 308.400 294.627,308.627 294.400,308.904 294.400 C 309.182 294.400,309.857 293.847,310.404 293.171 C 310.952 292.495,311.810 291.460,312.311 290.871 C 312.813 290.282,313.443 289.538,313.711 289.218 C 313.980 288.898,314.422 288.178,314.692 287.618 C 314.963 287.058,315.354 286.330,315.561 286.000 C 316.625 284.300,317.600 281.851,317.600 280.877 C 317.600 280.272,317.887 279.369,318.237 278.868 C 318.588 278.368,319.022 277.023,319.201 275.879 C 319.381 274.736,319.821 273.012,320.179 272.050 C 320.640 270.811,320.792 269.350,320.697 267.050 C 320.605 264.828,320.537 264.473,320.481 265.926 " stroke="none" fill="#70da64" fill-rule="evenodd"></path><path id="path3" d="M130.705 91.883 C 131.202 91.979,131.922 91.975,132.305 91.875 C 132.687 91.775,132.280 91.696,131.400 91.701 C 130.520 91.705,130.207 91.787,130.705 91.883 M139.800 94.800 C 140.659 95.680,141.452 96.400,141.562 96.400 C 141.672 96.400,141.059 95.680,140.200 94.800 C 139.341 93.920,138.548 93.200,138.438 93.200 C 138.328 93.200,138.941 93.920,139.800 94.800 M83.693 147.200 C 83.693 147.970,83.775 148.285,83.876 147.900 C 83.976 147.515,83.976 146.885,83.876 146.500 C 83.775 146.115,83.693 146.430,83.693 147.200 M154.778 166.700 L 153.400 168.200 154.900 166.822 C 156.296 165.538,156.584 165.200,156.278 165.200 C 156.212 165.200,155.537 165.875,154.778 166.700 M139.800 247.600 C 140.883 248.700,141.860 249.600,141.970 249.600 C 142.080 249.600,141.283 248.700,140.200 247.600 C 139.117 246.500,138.140 245.600,138.030 245.600 C 137.920 245.600,138.717 246.500,139.800 247.600 M146.000 253.800 C 148.081 255.890,149.874 257.600,149.984 257.600 C 150.094 257.600,148.481 255.890,146.400 253.800 C 144.319 251.710,142.526 250.000,142.416 250.000 C 142.306 250.000,143.919 251.710,146.000 253.800 M229.500 257.482 C 229.995 257.578,230.805 257.578,231.300 257.482 C 231.795 257.387,231.390 257.309,230.400 257.309 C 229.410 257.309,229.005 257.387,229.500 257.482 M320.540 260.800 C 320.540 262.670,320.609 263.435,320.693 262.500 C 320.777 261.565,320.777 260.035,320.693 259.100 C 320.609 258.165,320.540 258.930,320.540 260.800 " stroke="none" fill="#8ce484" fill-rule="evenodd"></path><path id="path4" d="M119.200 92.015 C 114.394 92.606,109.570 94.621,105.789 97.617 C 100.732 101.624,92.609 112.177,90.408 117.600 C 90.185 118.150,89.845 118.870,89.653 119.200 C 88.801 120.663,87.600 123.687,87.600 124.367 C 87.600 124.777,87.244 125.897,86.809 126.856 C 86.374 127.815,86.014 129.062,86.009 129.627 C 86.004 130.192,85.644 131.992,85.208 133.627 C 83.656 139.453,83.718 155.252,85.314 160.600 C 85.642 161.700,86.097 163.500,86.324 164.600 C 86.950 167.628,87.628 170.067,88.213 171.400 C 88.502 172.060,88.953 173.292,89.214 174.139 C 89.474 174.985,89.937 176.155,90.241 176.739 C 90.546 177.322,90.796 177.968,90.798 178.174 C 90.806 179.434,98.543 194.332,101.600 198.974 C 104.259 203.012,105.293 204.537,105.641 204.937 C 106.058 205.415,108.652 209.062,111.802 213.600 C 115.353 218.714,117.565 221.669,119.400 223.747 C 119.620 223.996,120.559 225.219,121.486 226.464 C 122.413 227.710,123.625 229.240,124.180 229.864 C 124.734 230.489,125.331 231.180,125.507 231.400 C 126.203 232.271,130.578 237.427,130.976 237.845 C 131.209 238.090,132.688 239.710,134.261 241.445 C 140.945 248.815,160.076 267.172,161.113 267.211 C 161.271 267.217,162.139 267.892,163.043 268.711 C 167.789 273.014,179.314 281.098,186.600 285.236 C 188.140 286.111,189.670 286.987,190.000 287.184 C 190.330 287.381,190.870 287.654,191.200 287.790 C 191.530 287.927,192.520 288.478,193.400 289.016 C 194.280 289.554,195.630 290.284,196.400 290.637 C 197.170 290.991,199.600 292.141,201.800 293.192 C 207.037 295.695,209.597 296.800,210.157 296.800 C 210.407 296.800,211.284 297.160,212.104 297.600 C 212.925 298.040,213.825 298.400,214.104 298.400 C 214.384 298.400,215.284 298.760,216.104 299.200 C 216.925 299.640,217.863 300.000,218.188 300.000 C 218.513 300.000,219.548 300.341,220.489 300.757 C 227.272 303.761,240.062 307.858,247.400 309.379 C 248.940 309.698,250.830 310.194,251.600 310.480 C 253.634 311.235,276.425 311.221,278.400 310.463 C 279.170 310.167,280.700 309.687,281.800 309.396 C 284.297 308.735,286.914 307.786,289.026 306.777 C 289.921 306.350,290.844 306.000,291.077 306.000 C 291.311 306.000,291.711 305.748,291.967 305.439 C 292.223 305.131,292.898 304.762,293.468 304.619 C 294.344 304.399,295.986 303.489,299.277 301.400 C 308.703 295.417,315.232 287.493,317.405 279.400 C 321.525 264.054,321.645 256.019,317.803 252.707 C 317.107 252.108,306.021 246.429,303.200 245.228 C 302.650 244.994,301.930 244.621,301.600 244.401 C 301.270 244.180,300.550 243.820,300.000 243.601 C 299.450 243.381,298.730 243.035,298.400 242.831 C 297.522 242.288,283.729 235.736,279.800 233.995 C 278.700 233.507,276.360 232.418,274.600 231.574 C 262.910 225.970,259.192 226.832,252.057 236.800 C 250.718 238.670,249.480 240.380,249.305 240.600 C 249.131 240.820,248.272 241.990,247.396 243.200 C 237.895 256.327,233.866 258.983,226.800 256.778 C 222.335 255.385,212.948 251.352,210.000 249.560 C 209.670 249.359,209.130 249.079,208.800 248.938 C 208.286 248.718,201.707 245.008,199.678 243.794 C 198.511 243.095,192.718 239.189,191.634 238.370 C 181.275 230.537,175.159 225.114,168.191 217.584 C 164.268 213.344,162.400 211.179,162.398 210.867 C 162.397 210.720,161.812 209.955,161.098 209.167 C 158.990 206.839,156.673 203.926,155.396 202.000 C 154.739 201.010,154.106 200.110,153.987 200.000 C 153.784 199.811,151.060 195.836,150.200 194.473 C 149.980 194.125,149.236 193.008,148.547 191.991 C 142.986 183.785,142.762 180.202,147.485 174.964 C 148.098 174.283,149.680 172.483,151.000 170.964 C 152.320 169.444,154.401 167.120,155.624 165.800 C 162.751 158.107,165.095 152.703,163.259 148.200 C 162.697 146.822,162.437 146.486,162.422 147.120 C 162.410 147.626,162.687 148.595,163.038 149.273 C 163.850 150.845,162.921 155.745,161.497 157.400 C 161.308 157.620,160.806 158.340,160.382 159.000 C 158.607 161.765,157.527 163.112,154.600 166.217 C 145.536 175.832,143.600 178.675,143.600 182.367 C 143.600 184.182,143.789 185.332,144.147 185.690 C 144.448 185.991,144.812 186.609,144.957 187.063 C 145.437 188.578,155.450 203.311,157.595 205.659 C 158.258 206.385,158.800 207.092,158.800 207.231 C 158.800 207.370,159.205 207.926,159.700 208.467 C 160.195 209.008,160.960 209.948,161.400 210.556 C 161.840 211.164,162.560 212.074,163.000 212.578 C 169.610 220.151,172.016 222.582,180.470 230.228 C 181.618 231.267,187.510 235.942,191.263 238.792 C 191.848 239.237,192.523 239.600,192.763 239.600 C 193.003 239.600,193.200 239.750,193.200 239.933 C 193.200 240.323,196.926 242.800,197.513 242.800 C 197.734 242.800,198.018 243.070,198.145 243.400 C 198.271 243.730,198.591 244.000,198.856 244.000 C 199.121 244.000,199.627 244.263,199.982 244.584 C 200.337 244.905,201.702 245.736,203.014 246.430 C 204.326 247.123,205.670 247.926,206.000 248.214 C 206.330 248.502,207.095 248.861,207.700 249.012 C 208.305 249.163,208.800 249.447,208.800 249.643 C 208.800 249.840,209.036 250.000,209.325 250.000 C 209.614 250.000,211.412 250.797,213.321 251.771 C 215.229 252.745,217.995 254.023,219.467 254.612 C 220.939 255.201,222.426 255.831,222.772 256.012 C 227.587 258.532,234.461 258.394,237.600 255.715 C 239.199 254.349,241.036 252.314,243.316 249.380 C 244.693 247.609,246.042 245.899,246.314 245.580 C 246.983 244.797,248.861 242.296,249.600 241.204 C 257.571 229.427,261.733 226.752,268.042 229.350 C 269.700 230.033,270.440 230.359,275.100 232.455 C 276.145 232.925,277.810 233.671,278.800 234.114 C 279.790 234.556,280.870 235.073,281.200 235.262 C 281.530 235.451,282.070 235.717,282.400 235.853 C 284.415 236.687,287.607 238.155,288.854 238.822 C 289.654 239.250,290.522 239.600,290.783 239.600 C 291.044 239.600,291.527 239.870,291.857 240.199 C 292.186 240.529,292.938 240.913,293.528 241.053 C 294.118 241.193,294.870 241.532,295.200 241.806 C 295.530 242.081,296.250 242.438,296.800 242.600 C 297.350 242.762,298.070 243.129,298.400 243.416 C 298.730 243.703,299.495 244.061,300.100 244.212 C 300.705 244.363,301.200 244.640,301.200 244.827 C 301.200 245.015,301.922 245.384,302.805 245.649 C 303.687 245.913,304.609 246.370,304.854 246.665 C 305.098 246.959,305.612 247.200,305.995 247.200 C 306.378 247.200,307.150 247.560,307.709 248.000 C 308.269 248.440,308.932 248.800,309.184 248.800 C 309.577 248.800,311.521 249.712,313.600 250.871 C 313.930 251.055,314.650 251.422,315.200 251.687 C 316.647 252.384,318.493 253.946,319.297 255.153 C 320.117 256.383,320.313 265.173,319.576 267.603 C 319.342 268.371,318.898 270.505,318.588 272.344 C 318.278 274.184,317.839 275.912,317.613 276.185 C 317.386 276.458,317.082 277.563,316.937 278.640 C 316.650 280.766,313.990 286.815,312.761 288.134 C 312.342 288.583,312.000 289.097,312.000 289.275 C 312.000 289.454,311.685 289.925,311.300 290.322 C 310.915 290.720,309.857 291.862,308.948 292.861 C 307.536 294.414,304.986 296.600,301.800 298.987 C 301.360 299.317,300.522 299.950,299.937 300.393 C 299.352 300.837,298.722 301.205,298.537 301.211 C 298.352 301.218,297.124 301.938,295.809 302.811 C 294.493 303.685,293.123 304.400,292.763 304.400 C 292.402 304.400,291.679 304.737,291.154 305.148 C 290.629 305.559,289.615 306.024,288.900 306.180 C 288.185 306.336,287.600 306.621,287.600 306.814 C 287.600 307.006,286.925 307.282,286.100 307.427 C 285.275 307.571,284.223 307.925,283.763 308.213 C 283.302 308.501,281.882 308.929,280.608 309.165 C 279.333 309.400,278.017 309.820,277.684 310.097 C 276.781 310.846,253.781 310.817,252.459 310.064 C 251.942 309.769,250.335 309.361,248.890 309.156 C 246.379 308.800,245.242 308.501,239.800 306.765 C 238.480 306.344,237.078 306.000,236.684 306.000 C 236.290 306.000,235.262 305.640,234.400 305.200 C 233.538 304.760,232.510 304.394,232.116 304.386 C 231.722 304.379,230.680 304.025,229.800 303.600 C 228.920 303.175,227.933 302.821,227.608 302.814 C 227.009 302.800,223.608 301.571,221.400 300.571 C 220.740 300.272,219.660 299.907,219.000 299.760 C 218.340 299.613,217.530 299.267,217.200 298.991 C 216.870 298.715,216.033 298.369,215.339 298.221 C 214.646 298.074,213.392 297.604,212.554 297.177 C 211.716 296.750,210.720 296.400,210.339 296.400 C 209.959 296.400,209.536 296.220,209.400 296.000 C 209.264 295.780,208.359 295.400,207.388 295.155 C 206.418 294.911,205.417 294.461,205.163 294.156 C 204.910 293.850,204.533 293.600,204.326 293.600 C 203.609 293.600,196.690 290.287,192.600 287.985 C 191.060 287.118,189.260 286.122,188.600 285.770 C 185.927 284.346,184.852 283.694,181.555 281.496 C 179.661 280.233,177.906 279.200,177.655 279.200 C 177.405 279.200,177.200 279.030,177.200 278.822 C 177.200 278.614,176.783 278.209,176.274 277.922 C 174.039 276.661,172.400 275.494,172.400 275.160 C 172.400 274.962,172.236 274.800,172.036 274.800 C 171.836 274.800,170.165 273.675,168.323 272.300 C 164.942 269.776,164.680 269.567,162.708 267.820 C 162.107 267.288,160.944 266.346,160.124 265.726 C 159.303 265.107,158.049 264.060,157.336 263.400 C 156.623 262.740,154.933 261.210,153.581 260.000 C 146.477 253.645,133.926 240.659,128.645 234.200 C 127.565 232.880,126.456 231.613,126.180 231.384 C 125.904 231.156,124.490 229.446,123.037 227.584 C 121.584 225.723,120.082 223.800,119.698 223.310 C 119.314 222.821,118.415 221.741,117.700 220.910 C 116.985 220.080,116.400 219.290,116.400 219.155 C 116.400 219.020,115.862 218.210,115.205 217.355 C 114.547 216.500,113.872 215.620,113.705 215.400 C 113.537 215.180,112.869 214.190,112.221 213.200 C 111.572 212.210,110.851 211.220,110.618 211.000 C 110.385 210.780,109.295 209.254,108.197 207.609 C 107.099 205.964,105.930 204.329,105.600 203.976 C 105.270 203.623,104.508 202.539,103.908 201.567 C 102.733 199.667,102.495 199.287,100.510 196.140 C 99.796 195.008,99.019 193.658,98.785 193.140 C 98.551 192.623,97.934 191.480,97.415 190.600 C 96.356 188.807,94.667 185.517,94.025 184.000 C 93.792 183.450,93.434 182.730,93.229 182.400 C 92.536 181.284,91.249 178.207,90.970 177.000 C 90.817 176.340,90.466 175.530,90.190 175.200 C 89.913 174.870,89.563 173.845,89.412 172.923 C 89.261 172.001,88.897 171.047,88.603 170.803 C 88.310 170.559,87.943 169.424,87.788 168.280 C 87.633 167.136,87.282 165.750,87.009 165.200 C 86.735 164.650,86.397 163.190,86.259 161.956 C 86.120 160.722,85.718 159.022,85.365 158.179 C 84.419 155.915,84.435 137.648,85.385 135.374 C 85.740 134.525,86.138 132.744,86.271 131.415 C 86.403 130.087,86.741 128.544,87.022 127.986 C 87.302 127.429,87.664 126.259,87.826 125.386 C 87.988 124.514,88.346 123.440,88.621 123.000 C 88.896 122.560,89.241 121.627,89.386 120.928 C 89.532 120.228,89.898 119.450,90.200 119.200 C 90.502 118.950,90.862 118.230,91.000 117.600 C 91.138 116.970,91.498 116.250,91.800 116.000 C 92.102 115.750,92.461 115.032,92.599 114.406 C 92.736 113.779,93.108 113.167,93.424 113.046 C 93.741 112.924,94.000 112.577,94.000 112.275 C 94.000 111.972,94.355 111.402,94.790 111.009 C 95.224 110.616,95.692 109.940,95.829 109.508 C 95.967 109.075,96.376 108.408,96.739 108.025 C 97.103 107.643,98.835 105.664,100.589 103.629 C 108.295 94.684,113.545 92.400,126.401 92.400 C 130.745 92.400,134.855 92.511,135.533 92.647 C 137.106 92.961,141.423 96.841,141.780 98.261 C 141.928 98.853,142.398 99.780,142.825 100.322 C 143.251 100.864,143.600 101.622,143.600 102.005 C 143.600 102.388,143.858 102.917,144.174 103.179 C 144.490 103.441,144.868 104.228,145.014 104.928 C 145.159 105.627,145.507 106.563,145.787 107.006 C 146.066 107.449,146.420 108.382,146.573 109.078 C 146.726 109.775,147.110 110.559,147.426 110.821 C 147.742 111.083,148.002 111.591,148.004 111.949 C 148.006 112.307,148.450 113.500,148.991 114.600 C 149.532 115.700,149.981 116.904,149.987 117.276 C 149.994 117.648,150.180 118.064,150.400 118.200 C 150.620 118.336,151.000 119.241,151.245 120.212 C 151.489 121.182,151.939 122.183,152.244 122.437 C 152.550 122.690,152.800 123.237,152.800 123.650 C 152.800 124.064,153.160 125.075,153.600 125.896 C 154.040 126.716,154.400 127.625,154.400 127.915 C 154.400 128.205,154.760 129.152,155.200 130.021 C 155.640 130.889,156.360 132.311,156.800 133.179 C 157.240 134.048,157.600 135.038,157.600 135.381 C 157.600 135.723,157.960 136.675,158.400 137.496 C 158.840 138.316,159.200 139.284,159.200 139.645 C 159.200 140.006,159.465 140.522,159.789 140.791 C 160.114 141.060,160.489 141.866,160.623 142.582 C 160.866 143.878,162.392 146.604,162.397 145.751 C 162.400 145.302,161.079 141.980,160.409 140.750 C 160.215 140.392,159.469 138.592,158.753 136.750 C 158.037 134.907,157.214 133.045,156.925 132.611 C 156.636 132.177,156.399 131.547,156.398 131.211 C 156.396 130.875,156.115 130.063,155.773 129.407 C 155.431 128.751,154.704 127.041,154.157 125.607 C 153.611 124.173,152.831 122.280,152.423 121.400 C 152.016 120.520,151.286 118.810,150.800 117.600 C 150.315 116.390,149.680 114.860,149.389 114.200 C 148.673 112.573,147.071 108.676,146.018 106.000 C 142.952 98.210,139.078 92.876,136.043 92.269 C 133.789 91.818,122.223 91.644,119.200 92.015 " stroke="none" fill="#94e48c" fill-rule="evenodd"></path></g></svg>