<svg xmlns="http://www.w3.org/2000/svg" viewBox="0 0 428 78.3"><path d="M96.8,61.3c0,6.5.1,11.6,5,16.2v.3H71.5v-.3c5.5-3.5,4.8-10,4.8-15.9V19.3c0-5.9.9-12.4-4.7-15.9V3.1H98.5c6.3,0,14.6-.1,20.3,2.7a19.3,19.3,0,0,1,10.7,17.8c0,16.1-13.7,22.3-27.9,22.2a26.8,26.8,0,0,1-4-.2,17.1,17.1,0,0,0,11-16.5c0-8.1-2.8-14.4-11.6-14.8Z" transform="translate(-2 -1.9)"/><path d="M177.6,79.2l-4.5.3c-5.8,0-11.2-1.2-15.5-5.2s-4.8-10.3-4.8-17V53.6l-3.6,1.7c-2.8,1.3-6.5,3-6.5,6.8s2.8,7.4,6.9,7.4a9.1,9.1,0,0,0,2.3-.3L147,79.1l-5.8.3c-3.9,0-8.9-.7-12.1-2.7a16,16,0,0,1-7.5-13.4c.1-20.9,31.2-13.9,31.3-23.4,0-3.5-4.4-4.8-7.3-4.8a33,33,0,0,0-14.3,3.7l5.4-12.9A52.8,52.8,0,0,1,151,24.3c5.3,0,11.4,1.1,15.8,4.4s6.2,10.9,6.1,17.5v9.1c0,7.6-.4,13.8,9.4,14Z" transform="translate(-2 -1.9)"/><path d="M209.4,32.6c1.7-5.2,6.5-8,12.2-8l4.2.3V38.8a24.3,24.3,0,0,0-5.9-1,12,12,0,0,0-9,3.9c-1.9,2.1-1.6,4-1.6,6.9V65.7c0,5.2-.3,8.6,3.9,12.2v.3H185.7v-.3c4.2-3.5,3.9-6.8,3.9-12.2V38.4c0-5.2.4-8.6-3.8-12.1v-.4h15.9a14.5,14.5,0,0,0,7.2-1.7h.4Z" transform="translate(-2 -1.9)"/><path d="M241.6,3.7a27.8,27.8,0,0,0,10.3-1.8h.3L252,65.8c0,5.3-.4,8.6,3.8,12.2v.3H228.5v-.4c4.2-3.6,3.8-6.9,3.9-12.1V16.2c0-5.7.4-8.3-3.6-12.3V3.6Z" transform="translate(-2 -1.9)"/><path d="M301.5,54.1c0-7-1.5-18.4-10.6-18.4s-10.1,7.4-10.1,14.1.9,19.6,10.8,19.6,9.8-8.6,9.9-15.3m-39.7-1.4c0-17.3,12.5-27.9,29.5-27.9,7.3,0,14.3,1.8,19.9,6.5a27.1,27.1,0,0,1,9.3,20.5c0,17.9-13,28.2-30.2,28.1s-28.6-10.4-28.5-27.2" transform="translate(-2 -1.9)"/><path d="M347.9,53.9c0,5-1.2,14.5,6.3,14.6a6.3,6.3,0,0,0,5.3-2.5c1.8-2.7,1.6-5.7,1.6-8.6V39c0-5.3.3-8.6-3.9-12.2v-.3h15.5a14.6,14.6,0,0,0,7.7-1.7h.4l-.2,41.4c.1,5.3-.3,8.6,3.8,12.2v.3H361.1v-6c-3.8,5.1-8.9,7.5-15.6,7.4-4.4,0-9.3-1.2-12.8-4.3s-4.5-9.2-4.5-14.9v-22c0-5.3.3-8.6-3.9-12.2v-.3H340a13.2,13.2,0,0,0,7.6-1.6h.4Z" transform="translate(-2 -1.9)"/><path d="M413.5,33.3c1.7-5.2,6.5-8,12.3-8l4.2.3V39.5a23.5,23.5,0,0,0-5.8-1,11.9,11.9,0,0,0-9,3.9c-2,2.1-1.6,4-1.6,6.9V66.4c0,5.2-.4,8.6,3.8,12.2v.3H389.9v-.3c4.2-3.5,3.9-6.8,3.9-12.2V39.1c0-5.2.3-8.6-3.9-12.1v-.4h15.9a15.1,15.1,0,0,0,7.3-1.7h.3Z" transform="translate(-2 -1.9)"/><path d="M50.4,26.2h-.1c-1.3-1.9-3.5-1.6-5.6-1.7H29.8c-2.1,0-4.4-.3-5.6,1.7h-.1v-14a2.4,2.4,0,0,0-.2-1.7h5.8c-1.8,1.1-1.6,3.4-1.6,5.3v1.3h6.5V13.4a3.4,3.4,0,0,0-.2-1.5v-.2h5.6v.2c-1.6.6-1.4,2.4-1.4,3.9v1.3H46a12.2,12.2,0,0,0,.6-4.2c0-2.3-.3-4.3-2.2-5.9V6.9l6,1.6Zm-.1,11.9h-.1c-1.2-2-3.5-1.7-5.6-1.7H38.4v7.1h6.3c2.1,0,4.4.3,5.6-1.7h.1V52.6h-.1c-1.3-1.9-3.5-1.6-5.6-1.7H29.7c-2.1,0-4.3-.3-5.6,1.7H24V41.8h.2c1.2,2,3.5,1.7,5.5,1.7h4.6V36.4H29.8c-2.1,0-4.4-.3-5.6,1.6h-.1V27.3h.1c1.2,1.9,3.5,1.7,5.6,1.7H44.7c2,0,4.3.3,5.6-1.6h.1V38.1M50.2,70h-.1c-1.2-2-3.5-1.7-5.6-1.7h-16a6.8,6.8,0,0,0-.2,2,7.1,7.1,0,0,0,1.5,4.6l.2.2-6.2-1.5V54.2l6,1.3a3.3,3.3,0,0,0-1.7,3.3,7.5,7.5,0,0,0,.2,2.1h16c2.3,0,4,0,5.6-1.7h.2V70M2,77.9H58.1V2.8H2Z" transform="translate(-2 -1.9)"/></svg>