<svg xmlns="http://www.w3.org/2000/svg" viewBox="0 0 589 589"><path d="M306,8.3C143.3,8.3,11.5,140.2,11.5,302.8S143.3,597.3,306,597.3,600.5,465.5,600.5,302.8,468.7,8.3,306,8.3ZM335.6,331a133.2,133.2,0,0,1-20.9-1.2c36.1-15,56.5-45.7,56.6-84.6.1-41.3-14.3-73.9-59.6-75.8l-.8,240.5c-.1,33.2.4,59.3,25.3,82.6v1.8L181,493.7V492c28.5-17.9,24.5-51.1,24.6-81.3l.8-216.1c.1-30.2,4.3-63.3-24.1-81.5v-1.7l137.1.5c32.5.1,74.9-.3,104,14.3,35.3,17.6,54.9,51.3,54.8,90.8C478,299.5,408.2,331.2,335.6,331Z" transform="translate(-11.5 -8.3)"/></svg>